<svg width="124" height="44" viewBox="0 0 124 44" fill="none" xmlns="http://www.w3.org/2000/svg">
<path d="M104.128 35.9857L108.992 42.6415C109.255 42.9736 109.697 43.1694 110.125 43.1694H122.609C123.377 43.1694 124 42.4231 124 41.5025V36.7799C124 35.8593 123.377 35.1131 122.609 35.1131H104.802C104.325 35.1131 104.015 35.5667 104.128 35.9857Z" fill="white"/>
<path d="M110.125 14C109.652 14 109.248 14.239 108.992 14.6349L104.519 20.9847C104.219 21.4468 104.552 22.0563 105.103 22.0563H122.609C123.377 22.0563 124 21.3101 124 20.3895V15.6668C124 14.7463 123.377 14 122.609 14H110.125Z" fill="white"/>
<path d="M115.347 24.5565C114.579 24.5565 113.956 25.3028 113.956 26.2233V30.946C113.956 31.8666 114.579 32.6128 115.347 32.6128H122.609C123.377 32.6128 124 31.8666 124 30.946V26.2233C124 25.3028 123.377 24.5565 122.609 24.5565H115.347Z" fill="white"/>
<path d="M102.055 32.1802C102.185 32.3644 102.397 32.4739 102.623 32.4739H110.407C111.022 32.4739 111.52 31.7277 111.52 30.8071V26.0845C111.52 25.1639 111.022 24.4176 110.407 24.4176H102.964C102.733 24.4176 102.517 24.5325 102.387 24.7242L100.156 28.031C99.8492 28.4854 99.8559 29.0732 100.173 29.521L102.055 32.1802Z" fill="white"/>
<path d="M18.1733 13.0191C20.4095 13.0191 22.4287 13.6308 24.2311 14.8543C26.0334 16.0429 27.4519 17.7733 28.4865 20.0455C29.5212 22.3178 30.0385 24.992 30.0385 28.0683C30.0385 31.1446 29.5212 33.8363 28.4865 36.1435C27.4519 38.4158 26.0334 40.1636 24.2311 41.3872C22.4287 42.5757 20.4095 43.17 18.1733 43.17C16.2041 43.17 14.5019 42.733 13.0667 41.8591C11.6316 40.9502 10.5635 39.7092 9.86264 38.1361V41.3464C9.86264 42.1508 9.24002 42.8029 8.47197 42.8029H1.39067C0.622626 42.8029 0 42.1508 0 41.3464V5.45657C0 4.65213 0.622626 4 1.39067 4H8.47197C9.24002 4 9.86264 4.65213 9.86264 5.45657V18.053C10.5635 16.4799 11.6316 15.2564 13.0667 14.3824C14.5019 13.4735 16.2041 13.0191 18.1733 13.0191ZM14.9191 22.0381C13.4506 22.0381 12.2323 22.58 11.2644 23.6637C10.2965 24.7473 9.81258 26.2156 9.81258 28.0683C9.81258 29.956 10.2965 31.4417 11.2644 32.5254C12.2323 33.6091 13.4506 34.1509 14.9191 34.1509C16.4544 34.1509 17.6893 33.6266 18.6239 32.5778C19.5918 31.4942 20.0757 29.991 20.0757 28.0683C20.0757 26.1806 19.5918 24.7124 18.6239 23.6637C17.6893 22.58 16.4544 22.0381 14.9191 22.0381Z" fill="white"/>
<path d="M43.3626 18.6556C44.464 16.9156 45.8492 15.5236 47.518 14.4796C48.7685 13.6972 50.0753 13.208 51.4384 13.0119C52.1992 12.9025 52.8248 13.5627 52.8248 14.3636V22.4257C52.8248 23.2265 52.2021 23.8757 51.4341 23.8757H49.9711C47.7683 23.8757 46.1162 24.3281 45.0148 25.2329C43.9133 26.103 43.3626 27.6342 43.3626 29.8266V41.72C43.3626 42.5208 42.74 43.17 41.972 43.17H34.8907C34.1226 43.17 33.5 42.5208 33.5 41.72V14.6246C33.5 13.8237 34.1226 13.1746 34.8907 13.1746H41.972C42.74 13.1746 43.3626 13.8237 43.3626 14.6246V18.6556Z" fill="white"/>
<path d="M56 5.3368C56 3.78684 56.534 2.51869 57.6021 1.53235C58.6701 0.510782 60.0719 0 61.8074 0C63.543 0 64.9281 0.510782 65.9628 1.53235C66.9974 2.51869 67.5148 3.78684 67.5148 5.3368C67.5148 6.81631 66.9808 8.04924 65.9127 9.03558C64.8781 10.0219 63.5096 10.5151 61.8074 10.5151C60.0719 10.5151 58.6701 10.0219 57.6021 9.03558C56.534 8.04924 56 6.81631 56 5.3368ZM65.273 12.8074C66.041 12.8074 66.6637 13.4646 66.6637 14.2752V41.7022C66.6637 42.5129 66.041 43.17 65.273 43.17H58.1917C57.4237 43.17 56.801 42.5129 56.801 41.7022V14.2752C56.801 13.4646 57.4237 12.8074 58.1917 12.8074H65.273Z" fill="white"/>
<path d="M89.5793 43.17C89.1119 43.17 88.6757 42.9217 88.4184 42.5091L81.1707 30.8897V41.6997C81.1707 42.5117 80.5481 43.17 79.7801 43.17H72.6988C71.9307 43.17 71.3081 42.5117 71.3081 41.6997V5.09928C71.3081 4.28723 71.9307 4 72.6988 4H79.7801C80.5481 4 81.1707 4.28723 81.1707 5.09928V25.0142L88.4651 14.0969C88.7257 13.7068 89.1492 13.4749 89.6009 13.4749H97.5063C98.6628 13.4749 99.314 14.8805 98.6051 15.8465L89.8719 27.7485C89.6105 28.1048 89.614 28.5904 89.8807 28.9428L98.8382 40.7811C99.5666 41.7439 98.9183 43.17 97.7522 43.17H89.5793Z" fill="white"/>
</svg>
