<svg width="197" height="69" viewBox="0 0 197 69" fill="none" xmlns="http://www.w3.org/2000/svg">
<g clip-path="url(#clip0_23241_115)">
<path d="M194.789 55.7848C196.01 55.7848 196.999 56.9707 196.999 58.4332V65.9361C196.999 67.3983 196.009 68.5829 194.789 68.5829H174.956C174.278 68.5829 173.574 68.2727 173.156 67.7451L165.429 57.1703C165.25 56.5048 165.742 55.7849 166.499 55.7848H194.789Z" fill="#E35335"/>
<path d="M194.789 39.0134C196.01 39.0134 196.999 40.1993 196.999 41.6617V49.1647C196.999 50.6269 196.009 51.813 194.789 51.813H183.253C182.033 51.813 181.043 50.6269 181.043 49.1647V41.6617C181.043 40.1993 182.033 39.0134 183.253 39.0134H194.789Z" fill="#E35335"/>
<path d="M175.405 38.7931C176.381 38.7932 177.173 39.9778 177.173 41.4399V48.9428C177.173 50.4053 176.381 51.5911 175.405 51.5912H163.038C162.679 51.5911 162.342 51.4168 162.135 51.1242L159.145 46.8995C158.642 46.1882 158.632 45.2552 159.119 44.5335L162.664 39.2802C162.869 38.9758 163.213 38.7931 163.581 38.7931H175.405Z" fill="#E35335"/>
<path d="M194.789 22.2419C196.01 22.2419 196.999 23.4278 196.999 24.8903V32.3932C196.999 33.8556 196.009 35.0416 194.789 35.0416H166.977C166.102 35.041 165.574 34.072 166.049 33.3381L173.156 23.2504C173.564 22.6216 174.206 22.2419 174.956 22.2419H194.789Z" fill="#E35335"/>
<path d="M28.8721 20.6835C32.4248 20.6835 35.6328 21.6554 38.4961 23.5993C41.3595 25.4875 43.613 28.2366 45.2568 31.8466C46.9006 35.4565 47.7225 39.7051 47.7225 44.5924C47.7225 49.4797 46.9006 53.7561 45.2568 57.4216C43.613 61.0315 41.3595 63.8084 38.4961 65.7522C35.6328 67.6405 32.4248 68.5846 28.8721 68.5846C25.7436 68.5846 23.0393 67.8904 20.7593 66.502C18.4792 65.058 16.7824 63.0864 15.6689 60.5872V65.6874C15.6689 66.9654 14.6797 68.0015 13.4595 68.0015H2.20938C0.989172 68.0015 0 66.9654 0 65.6874V8.66892C0 7.3909 0.989172 6.35486 2.20938 6.35486H13.4595C14.6797 6.35486 15.6689 7.3909 15.6689 8.66892V28.6809C16.7824 26.1818 18.4792 24.2379 20.7593 22.8495C23.0393 21.4055 25.7436 20.6835 28.8721 20.6835ZM23.7022 35.0122C21.3691 35.0122 19.4336 35.873 17.8959 37.5947C16.3582 39.3164 15.5893 41.6489 15.5893 44.5924C15.5893 47.5915 16.3582 49.9518 17.8959 51.6735C19.4336 53.3951 21.3691 54.256 23.7022 54.256C26.1413 54.256 28.1032 53.4229 29.5879 51.7568C31.1257 50.0351 31.8945 47.647 31.8945 44.5924C31.8945 41.5934 31.1257 39.2608 29.5879 37.5947C28.1032 35.873 26.1413 35.0122 23.7022 35.0122Z" fill="#1B1B1B"/>
<path d="M68.8907 29.6384C70.6405 26.874 72.841 24.6624 75.4923 23.0038C77.4791 21.7609 79.5552 20.9836 81.7207 20.6721C82.9294 20.4982 83.9233 21.5472 83.9233 22.8195V35.6279C83.9233 36.9002 82.9341 37.9316 81.7139 37.9316H79.3896C75.89 37.9316 73.2652 38.6503 71.5154 40.0878C69.7656 41.47 68.8907 43.9027 68.8907 47.3858V66.2809C68.8907 67.5532 67.9015 68.5846 66.6813 68.5846H55.4312C54.211 68.5846 53.2218 67.5532 53.2218 66.2809V23.2342C53.2218 21.9619 54.211 20.9305 55.4312 20.9305H66.6813C67.9015 20.9305 68.8907 21.9619 68.8907 23.2342V29.6384Z" fill="#1B1B1B"/>
<path d="M88.9678 8.47863C88.9678 6.01619 89.8162 4.00146 91.513 2.43446C93.2098 0.811484 95.4368 0 98.1941 0C100.951 0 103.152 0.811484 104.796 2.43446C106.44 4.00146 107.261 6.01619 107.261 8.47863C107.261 10.8291 106.413 12.7879 104.716 14.3549C103.072 15.9219 100.898 16.7054 98.1941 16.7054C95.4368 16.7054 93.2098 15.9219 91.513 14.3549C89.8162 12.7879 88.9678 10.8291 88.9678 8.47863ZM103.7 20.3473C104.92 20.3473 105.909 21.3913 105.909 22.6792V66.2527C105.909 67.5406 104.92 68.5846 103.7 68.5846H92.4497C91.2295 68.5846 90.2404 67.5406 90.2404 66.2527V22.6792C90.2404 21.3913 91.2295 20.3473 92.4497 20.3473H103.7Z" fill="#1B1B1B"/>
<path d="M142.316 68.5846C141.573 68.5846 140.88 68.1902 140.471 67.5347L128.957 49.0747V66.2487C128.957 67.5388 127.968 68.5846 126.747 68.5846H115.497C114.277 68.5846 113.288 67.5388 113.288 66.2487V8.1013C113.288 6.81119 114.277 6.35486 115.497 6.35486H126.747C127.968 6.35486 128.957 6.81119 128.957 8.1013V39.7403L140.545 22.3959C140.959 21.7762 141.632 21.4077 142.35 21.4077H154.909C156.747 21.4077 157.781 23.6407 156.655 25.1755L142.78 44.0843C142.365 44.6504 142.371 45.4219 142.794 45.9817L157.025 64.7894C158.182 66.3189 157.153 68.5846 155.3 68.5846H142.316Z" fill="#1B1B1B"/>
</g>
<defs>
<clipPath id="clip0_23241_115">
<rect width="197" height="68.5885" fill="white"/>
</clipPath>
</defs>
</svg>
