<svg width="313" height="55" viewBox="0 0 313 55" fill="none" xmlns="http://www.w3.org/2000/svg">
<path d="M21.3562 20.7931C23.984 20.7931 26.3569 21.4785 28.4749 22.8494C30.5929 24.1811 32.2598 26.1199 33.4757 28.6658C34.6915 31.2117 35.2995 34.208 35.2995 37.6547C35.2995 41.1015 34.6915 44.1174 33.4757 46.7025C32.2598 49.2484 30.5929 51.2068 28.4749 52.5776C26.3569 53.9093 23.984 54.5752 21.3562 54.5752C19.0421 54.5752 17.0418 54.0856 15.3553 53.1064C13.6687 52.088 12.4136 50.6976 11.59 48.935V54.1639H0V10.6878H11.59V26.4332C12.4136 24.6707 13.6687 23.2998 15.3553 22.3206C17.0418 21.3022 19.0421 20.7931 21.3562 20.7931ZM17.5321 30.8983C15.8063 30.8983 14.3747 31.5054 13.2373 32.7196C12.0999 33.9338 11.5312 35.5789 11.5312 37.6547C11.5312 39.7698 12.0999 41.4344 13.2373 42.6486C14.3747 43.8628 15.8063 44.4699 17.5321 44.4699C19.3363 44.4699 20.7875 43.8824 21.8857 42.7074C23.0231 41.4932 23.5918 39.809 23.5918 37.6547C23.5918 35.5397 23.0231 33.8947 21.8857 32.7196C20.7875 31.5054 19.3363 30.8983 17.5321 30.8983Z" fill="white"/>
<path d="M51.5508 27.7845C52.8451 25.8261 54.4728 24.2594 56.4339 23.0844C58.3949 21.9093 60.4737 21.3218 62.6701 21.3218V33.6597H59.3167C56.728 33.6597 54.7866 34.1688 53.4922 35.1872C52.1979 36.1664 51.5508 37.8898 51.5508 40.3573V54.5752H39.9608V21.6156H51.5508V27.7845Z" fill="white"/>
<path d="M67.3314 12.5091C67.3314 10.7857 67.959 9.37568 69.2141 8.27899C70.4691 7.14313 72.1165 6.5752 74.156 6.5752C76.1955 6.5752 77.8232 7.14313 79.0391 8.27899C80.2549 9.37568 80.8629 10.7857 80.8629 12.5091C80.8629 14.1541 80.2353 15.525 78.9802 16.6217C77.7644 17.7184 76.1563 18.2668 74.156 18.2668C72.1165 18.2668 70.4691 17.7184 69.2141 16.6217C67.959 15.525 67.3314 14.1541 67.3314 12.5091ZM79.8627 21.6156V54.5752H68.2727V21.6156H79.8627Z" fill="white"/>
<path d="M106.116 54.5752L97.1142 40.9448V54.5752H85.5242V11.0991H97.1142V34.4234L106.174 21.6156H119.647L106.822 38.1248L120 54.5752H106.116Z" fill="white"/>
<path d="M180.5 24.5068C182.709 24.5068 184.5 26.2977 184.5 28.5068V50.5068C184.5 52.716 182.709 54.5068 180.5 54.5068L132.5 54.5068C130.291 54.5068 128.5 52.716 128.5 50.5068L128.5 28.5068C128.5 26.2977 130.291 24.5068 132.5 24.5068L180.5 24.5068Z" fill="white"/>
<path d="M161.334 33.9584L164.318 41.7675L167.079 33.9584H172.5L163.672 54.5754H158.3L161.707 47.3134L155.888 33.9584H161.334Z" fill="#E34731"/>
<path d="M149.527 33.7844C150.638 33.7844 151.641 34.0746 152.537 34.6549C153.432 35.2186 154.136 36.0393 154.65 37.117C155.164 38.1946 155.421 39.463 155.421 40.922C155.421 42.381 155.164 43.6577 154.65 44.7519C154.136 45.8296 153.432 46.6586 152.537 47.2389C151.641 47.8026 150.638 48.0845 149.527 48.0845C148.549 48.0845 147.704 47.8772 146.991 47.4627C146.278 47.0317 145.747 46.4431 145.399 45.697V47.9104H140.5V29.5068H145.399V36.1719C145.747 35.4258 146.278 34.8455 146.991 34.431C147.704 34 148.549 33.7844 149.527 33.7844ZM147.911 38.062C147.181 38.062 146.576 38.319 146.096 38.833C145.615 39.3469 145.374 40.0433 145.374 40.922C145.374 41.8173 145.615 42.522 146.096 43.0359C146.576 43.5499 147.181 43.8069 147.911 43.8069C148.674 43.8069 149.287 43.5582 149.751 43.0608C150.232 42.5468 150.472 41.8339 150.472 40.922C150.472 40.0267 150.232 39.3304 149.751 38.833C149.287 38.319 148.674 38.062 147.911 38.062Z" fill="#E34731"/>
<path d="M214.356 20.7931C216.984 20.7931 219.357 21.4785 221.475 22.8494C223.593 24.1811 225.26 26.1199 226.476 28.6658C227.692 31.2117 228.299 34.208 228.299 37.6547C228.299 41.1015 227.692 44.1174 226.476 46.7025C225.26 49.2484 223.593 51.2068 221.475 52.5776C219.357 53.9093 216.984 54.5752 214.356 54.5752C212.042 54.5752 210.042 54.0856 208.355 53.1064C206.669 52.088 205.414 50.6976 204.59 48.935V54.1639H193V10.6878H204.59V26.4332C205.414 24.6707 206.669 23.2998 208.355 22.3206C210.042 21.3022 212.042 20.7931 214.356 20.7931ZM210.532 30.8983C208.806 30.8983 207.375 31.5054 206.237 32.7196C205.1 33.9338 204.531 35.5789 204.531 37.6547C204.531 39.7698 205.1 41.4344 206.237 42.6486C207.375 43.8628 208.806 44.4699 210.532 44.4699C212.336 44.4699 213.787 43.8824 214.886 42.7074C216.023 41.4932 216.592 39.809 216.592 37.6547C216.592 35.5397 216.023 33.8947 214.886 32.7196C213.787 31.5054 212.336 30.8983 210.532 30.8983Z" fill="white"/>
<path d="M244.551 27.7845C245.845 25.8261 247.473 24.2594 249.434 23.0844C251.395 21.9093 253.474 21.3218 255.67 21.3218V33.6597H252.317C249.728 33.6597 247.787 34.1688 246.492 35.1872C245.198 36.1664 244.551 37.8898 244.551 40.3573V54.5752H232.961V21.6156H244.551V27.7845Z" fill="white"/>
<path d="M260.331 12.5091C260.331 10.7857 260.959 9.37568 262.214 8.27899C263.469 7.14313 265.116 6.5752 267.156 6.5752C269.196 6.5752 270.823 7.14313 272.039 8.27899C273.255 9.37568 273.863 10.7857 273.863 12.5091C273.863 14.1541 273.235 15.525 271.98 16.6217C270.764 17.7184 269.156 18.2668 267.156 18.2668C265.116 18.2668 263.469 17.7184 262.214 16.6217C260.959 15.525 260.331 14.1541 260.331 12.5091ZM272.863 21.6156V54.5752H261.273V21.6156H272.863Z" fill="white"/>
<path d="M299.116 54.5752L290.114 40.9448V54.5752H278.524V11.0991H290.114V34.4234L299.174 21.6156H312.647L299.822 38.1248L313 54.5752H299.116Z" fill="white"/>
</svg>
