<svg width="243" height="139" viewBox="0 0 243 139" fill="none" xmlns="http://www.w3.org/2000/svg">
<path d="M40.436 5.176V9.572H35.088V25H29.6V9.572H24.308V5.176H40.436ZM52.7464 9.152C54.557 9.152 55.9757 9.75867 57.0024 10.972C58.029 12.1667 58.5424 13.8 58.5424 15.872V25H53.0824V16.572C53.0824 15.6573 52.8397 14.948 52.3544 14.444C51.8877 13.9213 51.253 13.66 50.4504 13.66C49.629 13.66 48.9757 13.9307 48.4904 14.472C48.005 14.9947 47.7624 15.7227 47.7624 16.656V25H42.2464V4.28H47.7624V11.924C48.2104 11.084 48.8637 10.412 49.7224 9.908C50.581 9.404 51.589 9.152 52.7464 9.152ZM76.561 16.852C76.561 17.244 76.5144 17.6733 76.421 18.14H66.033C66.1264 19.9133 66.901 20.8 68.357 20.8C68.8984 20.8 69.3464 20.6693 69.701 20.408C70.0557 20.1467 70.2984 19.8013 70.429 19.372H76.253C76.0477 20.4733 75.5904 21.472 74.881 22.368C74.1717 23.2453 73.2757 23.936 72.193 24.44C71.1104 24.944 69.925 25.196 68.637 25.196C67.069 25.196 65.6784 24.8787 64.465 24.244C63.2704 23.5907 62.337 22.6573 61.665 21.444C60.993 20.212 60.657 18.7747 60.657 17.132C60.657 15.4893 60.993 14.0613 61.665 12.848C62.337 11.6347 63.2797 10.7107 64.493 10.076C65.7064 9.42267 67.0877 9.096 68.637 9.096C70.205 9.096 71.5864 9.41333 72.781 10.048C73.9757 10.6827 74.8997 11.588 75.553 12.764C76.225 13.94 76.561 15.3027 76.561 16.852ZM70.961 15.844C70.9797 15.0413 70.765 14.4347 70.317 14.024C69.869 13.6133 69.309 13.408 68.637 13.408C67.909 13.408 67.3117 13.6133 66.845 14.024C66.397 14.4347 66.1357 15.0413 66.061 15.844H70.961Z" fill="white"/>
<path d="M226.262 93.6174C231.323 93.6174 235.288 95.3131 238.157 98.7043C241.027 102.043 242.462 106.609 242.462 112.4V137.912H227.201V114.356C227.201 111.8 226.523 109.817 225.166 108.409C223.862 106.948 222.088 106.217 219.845 106.217C217.549 106.217 215.723 106.974 214.366 108.487C213.01 109.948 212.332 111.982 212.332 114.591V137.912H196.915V94.0087H212.332V101.365C213.584 99.0174 215.41 97.1391 217.81 95.7304C220.21 94.3218 223.027 93.6174 226.262 93.6174Z" fill="white"/>
<path d="M226.262 93.6174C231.323 93.6174 235.288 95.3131 238.157 98.7043C241.027 102.043 242.462 106.609 242.462 112.4V137.912H227.201V114.356C227.201 111.8 226.523 109.817 225.166 108.409C223.862 106.948 222.088 106.217 219.845 106.217C217.549 106.217 215.723 106.974 214.366 108.487C213.01 109.948 212.332 111.982 212.332 114.591V137.912H196.915V94.0087H212.332V101.365C213.584 99.0174 215.41 97.1391 217.81 95.7304C220.21 94.3218 223.027 93.6174 226.262 93.6174Z" fill="white"/>
<path d="M192.718 94.0083L181.84 137.912H164.623L157.971 110.599L151.162 137.912H133.867L123.145 94.0083H138.406L143.18 123.356L150.066 94.0083H166.423L173.623 123.59L178.475 94.0083H192.718Z" fill="white"/>
<path d="M192.718 94.0083L181.84 137.912H164.623L157.971 110.599L151.162 137.912H133.867L123.145 94.0083H138.406L143.18 123.356L150.066 94.0083H166.423L173.623 123.59L178.475 94.0083H192.718Z" fill="white"/>
<path d="M98.1246 93.4604C102.507 93.4604 106.42 94.3735 109.864 96.1995C113.359 97.9734 116.098 100.582 118.081 104.026C120.063 107.417 121.055 111.382 121.055 115.921C121.055 120.512 120.063 124.503 118.081 127.895C116.098 131.286 113.359 133.895 109.864 135.721C106.42 137.547 102.507 138.46 98.1246 138.46C93.742 138.46 89.803 137.547 86.3074 135.721C82.8118 133.895 80.0727 131.286 78.0901 127.895C76.1075 124.503 75.1162 120.512 75.1162 115.921C75.1162 111.33 76.1075 107.339 78.0901 103.947C80.0727 100.556 82.8118 97.9734 86.3074 96.1995C89.803 94.3735 93.742 93.4604 98.1246 93.4604ZM98.1246 106.765C95.9855 106.765 94.2116 107.547 92.8029 109.112C91.3942 110.678 90.6899 112.947 90.6899 115.921C90.6899 118.947 91.3942 121.243 92.8029 122.808C94.2116 124.373 95.9855 125.156 98.1246 125.156C100.212 125.156 101.959 124.373 103.368 122.808C104.777 121.19 105.481 118.895 105.481 115.921C105.481 112.947 104.777 110.678 103.368 109.112C101.959 107.547 100.212 106.765 98.1246 106.765Z" fill="white"/>
<path d="M98.1246 93.4604C102.507 93.4604 106.42 94.3735 109.864 96.1995C113.359 97.9734 116.098 100.582 118.081 104.026C120.063 107.417 121.055 111.382 121.055 115.921C121.055 120.512 120.063 124.503 118.081 127.895C116.098 131.286 113.359 133.895 109.864 135.721C106.42 137.547 102.507 138.46 98.1246 138.46C93.742 138.46 89.803 137.547 86.3074 135.721C82.8118 133.895 80.0727 131.286 78.0901 127.895C76.1075 124.503 75.1162 120.512 75.1162 115.921C75.1162 111.33 76.1075 107.339 78.0901 103.947C80.0727 100.556 82.8118 97.9734 86.3074 96.1995C89.803 94.3735 93.742 93.4604 98.1246 93.4604ZM98.1246 106.765C95.9855 106.765 94.2116 107.547 92.8029 109.112C91.3942 110.678 90.6899 112.947 90.6899 115.921C90.6899 118.947 91.3942 121.243 92.8029 122.808C94.2116 124.373 95.9855 125.156 98.1246 125.156C100.212 125.156 101.959 124.373 103.368 122.808C104.777 121.19 105.481 118.895 105.481 115.921C105.481 112.947 104.777 110.678 103.368 109.112C101.959 107.547 100.212 106.765 98.1246 106.765Z" fill="white"/>
<path d="M40.5476 93.4607C43.6258 93.4607 46.2866 94.1389 48.5301 95.4954C50.7735 96.7997 52.443 98.6258 53.5387 100.974V64H68.9558V137.912H53.5387V130.947C52.443 133.295 50.7735 135.147 48.5301 136.504C46.2866 137.808 43.6258 138.46 40.5476 138.46C37.052 138.46 33.8955 137.573 31.0781 135.799C28.2608 133.973 26.0434 131.364 24.4261 127.973C22.8087 124.53 22 120.512 22 115.921C22 111.33 22.8087 107.339 24.4261 103.947C26.0434 100.556 28.2608 97.9736 31.0781 96.1998C33.8955 94.3737 37.052 93.4607 40.5476 93.4607ZM45.6344 106.921C43.2345 106.921 41.278 107.73 39.765 109.347C38.3041 110.913 37.5737 113.104 37.5737 115.921C37.5737 118.791 38.3041 121.034 39.765 122.652C41.278 124.217 43.2345 124.999 45.6344 124.999C47.9301 124.999 49.8344 124.191 51.3474 122.573C52.8604 120.956 53.6169 118.739 53.6169 115.921C53.6169 113.156 52.8604 110.965 51.3474 109.347C49.8344 107.73 47.9301 106.921 45.6344 106.921Z" fill="white"/>
<path d="M40.5476 93.4607C43.6258 93.4607 46.2866 94.1389 48.5301 95.4954C50.7735 96.7997 52.443 98.6258 53.5387 100.974V64H68.9558V137.912H53.5387V130.947C52.443 133.295 50.7735 135.147 48.5301 136.504C46.2866 137.808 43.6258 138.46 40.5476 138.46C37.052 138.46 33.8955 137.573 31.0781 135.799C28.2608 133.973 26.0434 131.364 24.4261 127.973C22.8087 124.53 22 120.512 22 115.921C22 111.33 22.8087 107.339 24.4261 103.947C26.0434 100.556 28.2608 97.9736 31.0781 96.1998C33.8955 94.3737 37.052 93.4607 40.5476 93.4607ZM45.6344 106.921C43.2345 106.921 41.278 107.73 39.765 109.347C38.3041 110.913 37.5737 113.104 37.5737 115.921C37.5737 118.791 38.3041 121.034 39.765 122.652C41.278 124.217 43.2345 124.999 45.6344 124.999C47.9301 124.999 49.8344 124.191 51.3474 122.573C52.8604 120.956 53.6169 118.739 53.6169 115.921C53.6169 113.156 52.8604 110.965 51.3474 109.347C49.8344 107.73 47.9301 106.921 45.6344 106.921Z" fill="white"/>
<g clip-path="url(#clip0_23621_135)">
<path d="M29.0186 37.8204C32.5894 37.8204 35.8136 38.7972 38.6915 40.7509C41.5694 42.6487 43.8344 45.4118 45.4865 49.0401C47.1386 52.6683 47.9647 56.9385 47.9647 61.8506C47.9647 66.7627 47.1386 71.0608 45.4865 74.7449C43.8344 78.3732 41.5694 81.1641 38.6915 83.1178C35.8136 85.0157 32.5894 85.9646 29.0186 85.9646C25.8743 85.9646 23.1563 85.2669 20.8646 83.8714C18.573 82.4201 16.8676 80.4385 15.7484 77.9266V83.0527C15.7484 84.3372 14.7542 85.3785 13.5278 85.3785H2.22059C0.994193 85.3785 0 84.3372 0 83.0527V25.7448C0 24.4602 0.994193 23.4189 2.22059 23.4189H13.5278C14.7542 23.4189 15.7484 24.4602 15.7484 25.7448V45.8584C16.8676 43.3465 18.573 41.3928 20.8646 39.9973C23.1563 38.546 25.8743 37.8204 29.0186 37.8204ZM23.8225 52.2218C21.4775 52.2218 19.5323 53.087 17.9868 54.8174C16.4412 56.5478 15.6685 58.8922 15.6685 61.8506C15.6685 64.8649 16.4412 67.2372 17.9868 68.9676C19.5323 70.698 21.4775 71.5632 23.8225 71.5632C26.274 71.5632 28.2459 70.7259 29.7381 69.0513C31.2836 67.3209 32.0564 64.9207 32.0564 61.8506C32.0564 58.8364 31.2836 56.492 29.7381 54.8174C28.2459 53.087 26.274 52.2218 23.8225 52.2218Z" fill="white"/>
<path d="M69.2406 46.8206C70.9993 44.0421 73.211 41.8194 75.8757 40.1523C77.8726 38.9031 79.9593 38.1219 82.1357 37.8088C83.3506 37.634 84.3495 38.6884 84.3495 39.9671V52.8405C84.3495 54.1192 83.3553 55.1559 82.1289 55.1559H79.7928C76.2754 55.1559 73.6374 55.8783 71.8786 57.323C70.1199 58.7123 69.2406 61.1573 69.2406 64.6581V83.6491C69.2406 84.9279 68.2464 85.9645 67.02 85.9645H55.7128C54.4864 85.9645 53.4922 84.9279 53.4922 83.6491V40.3839C53.4922 39.1051 54.4864 38.0685 55.7128 38.0685H67.02C68.2464 38.0685 69.2406 39.1051 69.2406 40.3839V46.8206Z" fill="white"/>
<path d="M89.4194 25.5534C89.4194 23.0785 90.2721 21.0535 91.9776 19.4786C93.683 17.8473 95.9213 17.0317 98.6926 17.0317C101.464 17.0317 103.676 17.8473 105.328 19.4786C106.98 21.0535 107.806 23.0785 107.806 25.5534C107.806 27.9159 106.953 29.8846 105.248 31.4595C103.596 33.0345 101.411 33.822 98.6926 33.822C95.9213 33.822 93.683 33.0345 91.9776 31.4595C90.2721 29.8846 89.4194 27.9159 89.4194 25.5534ZM104.226 37.4823C105.453 37.4823 106.447 38.5317 106.447 39.826V83.6208C106.447 84.9152 105.453 85.9645 104.226 85.9645H92.9191C91.6927 85.9645 90.6985 84.9152 90.6985 83.6208V39.826C90.6985 38.5317 91.6927 37.4823 92.9191 37.4823H104.226Z" fill="white"/>
<path d="M143.038 85.9646C142.291 85.9646 141.595 85.5681 141.184 84.9094L129.611 66.3557V83.6168C129.611 84.9134 128.617 85.9646 127.391 85.9646H116.083C114.857 85.9646 113.863 84.9134 113.863 83.6168V25.1742C113.863 23.8776 114.857 23.4189 116.083 23.4189H127.391C128.617 23.4189 129.611 23.8776 129.611 25.1742V56.9738L141.259 39.5414C141.675 38.9186 142.351 38.5482 143.072 38.5482H155.695C157.542 38.5482 158.582 40.7926 157.45 42.3352L143.505 61.3399C143.088 61.9089 143.093 62.6843 143.519 63.247L157.822 82.1501C158.985 83.6874 157.95 85.9646 156.088 85.9646H143.038Z" fill="white"/>
</g>
<path d="M69.15 83H53.5V88.5896C53.5 88.9391 53.6825 89.2633 53.9813 89.4446L60.4296 93.3571C61.0787 93.751 61.8948 93.7433 62.5364 93.3373L68.6847 89.447C68.9744 89.2637 69.15 88.9447 69.15 88.6019V83Z" fill="white"/>
<path d="M69.15 81H53.5V86.5896C53.5 86.9391 53.6825 87.2633 53.9813 87.4446L60.4296 91.3571C61.0787 91.751 61.8948 91.7433 62.5364 91.3373L68.6847 87.447C68.9744 87.2637 69.15 86.9447 69.15 86.6019V81Z" fill="white"/>
<defs>
<clipPath id="clip0_23621_135">
<rect width="198" height="69" fill="white" transform="translate(0 17)"/>
</clipPath>
</defs>
</svg>
