<svg  viewBox="0 0 20 20" fill="none" xmlns="http://www.w3.org/2000/svg">
<path d="M7.75 10.5C7.75 9.25781 8.73438 8.25 10 8.25C11.2422 8.25 12.25 9.25781 12.25 10.5C12.25 11.7422 11.2422 12.75 10 12.75C8.73438 12.75 7.75 11.7422 7.75 10.5ZM10 9.375C9.36719 9.375 8.875 9.89062 8.875 10.5C8.875 11.1328 9.36719 11.625 10 11.625C10.6094 11.625 11.125 11.1328 11.125 10.5C11.125 9.89062 10.6094 9.375 10 9.375ZM10.8672 4.5C11.3828 4.5 11.8281 4.875 11.9453 5.36719L12.1328 6.14062C12.3438 6.23438 12.5312 6.35156 12.6953 6.46875L13.4688 6.23438C13.9609 6.09375 14.5 6.30469 14.7578 6.75L15.625 8.27344C15.8828 8.71875 15.7891 9.28125 15.4141 9.63281L14.8516 10.1719C14.8516 10.2891 14.875 10.4062 14.875 10.5C14.875 10.6172 14.8516 10.7344 14.8516 10.8281L15.4141 11.3906C15.7891 11.7422 15.8828 12.3047 15.625 12.75L14.7578 14.2734C14.5 14.7188 13.9609 14.9297 13.4688 14.7891L12.6953 14.5547C12.5312 14.6719 12.3438 14.7891 12.1328 14.8828L11.9453 15.6562C11.8281 16.1484 11.3828 16.5 10.8672 16.5H9.10938C8.59375 16.5 8.14844 16.1484 8.03125 15.6562L7.84375 14.8828C7.63281 14.7891 7.44531 14.6719 7.28125 14.5547L6.50781 14.7891C6.01562 14.9297 5.47656 14.7188 5.21875 14.2734L4.35156 12.75C4.09375 12.3047 4.1875 11.7422 4.5625 11.3906L5.125 10.8281C5.125 10.7344 5.125 10.6172 5.125 10.5C5.125 10.4062 5.125 10.2891 5.125 10.1719L4.5625 9.63281C4.1875 9.28125 4.09375 8.71875 4.35156 8.27344L5.21875 6.75C5.47656 6.30469 6.01562 6.09375 6.50781 6.23438L7.28125 6.46875C7.44531 6.35156 7.63281 6.23438 7.84375 6.14062L8.03125 5.36719C8.14844 4.875 8.59375 4.5 9.10938 4.5H10.8672ZM8.80469 6.9375L8.54688 7.05469C8.24219 7.17188 7.96094 7.33594 7.72656 7.52344L7.49219 7.71094L6.20312 7.3125L5.33594 8.83594L6.29688 9.75L6.27344 10.0312C6.25 10.1953 6.25 10.3594 6.25 10.5C6.25 10.6641 6.25 10.8281 6.27344 10.9922L6.29688 11.2734L5.33594 12.1875L6.20312 13.7109L7.49219 13.3125L7.72656 13.5C7.96094 13.6875 8.24219 13.8516 8.54688 13.9688L8.80469 14.0859L9.10938 15.375H10.8672L11.1719 14.0859L11.4297 13.9688C11.7344 13.8516 12.0156 13.6875 12.25 13.5L12.4844 13.3125L13.7734 13.7109L14.6406 12.1875L13.6797 11.2734L13.7031 10.9922C13.7266 10.8281 13.75 10.6641 13.75 10.5C13.75 10.3594 13.7266 10.1953 13.7031 10.0312L13.6797 9.75L14.6406 8.83594L13.7734 7.3125L12.4844 7.71094L12.25 7.52344C12.0156 7.33594 11.7344 7.17188 11.4297 7.05469L11.1719 6.9375L10.8672 5.625H9.10938L8.80469 6.9375Z" fill="currentColor"/>
</svg>
