<svg  viewBox="0 0 20 20" fill="none" xmlns="http://www.w3.org/2000/svg">
<path d="M8.6875 7.5C10.3281 7.5 11.8984 6.86719 13.0703 5.69531L13.9609 4.80469C14.4297 4.33594 15.25 4.66406 15.25 5.34375V8.71875C15.6719 8.92969 16 9.49219 16 10.125C16 10.7812 15.6719 11.3438 15.25 11.5547V14.9297C15.25 15.6094 14.4297 15.9375 13.9609 15.4688L13.0703 14.5781C11.9453 13.4531 10.4453 12.7969 8.875 12.7734V15.1875C8.875 15.9141 8.26562 16.5 7.5625 16.5H6.8125C6.08594 16.5 5.5 15.9141 5.5 15.1875V12.75C4.65625 12.75 4 12.0938 4 11.25V9C4 8.17969 4.65625 7.5 5.5 7.5H8.6875ZM14.125 6.23438L13.8672 6.49219C12.5312 7.82812 10.75 8.57812 8.875 8.625V11.6484C10.75 11.6719 12.5312 12.4453 13.8672 13.7812L14.125 14.0391V6.23438ZM6.625 15.1875C6.625 15.3047 6.69531 15.375 6.8125 15.375H7.5625C7.65625 15.375 7.75 15.3047 7.75 15.1875V12.75H6.625V15.1875ZM5.125 9V11.25C5.125 11.4609 5.28906 11.625 5.5 11.625H7.75V8.625H5.5C5.28906 8.625 5.125 8.8125 5.125 9Z" fill="currentColor"/>
</svg>
