<svg  viewBox="0 0 20 20" fill="none" xmlns="http://www.w3.org/2000/svg">
<path d="M4 7.5C4 6.67969 4.65625 6 5.5 6H14.5C15.3203 6 16 6.67969 16 7.5V13.5C16 14.3438 15.3203 15 14.5 15H5.5C4.65625 15 4 14.3438 4 13.5V7.5ZM5.125 7.5V8.03906L9.15625 11.3438C9.64844 11.7422 10.3281 11.7422 10.8203 11.3438L14.875 8.03906V7.5C14.875 7.3125 14.6875 7.125 14.5 7.125H5.5C5.28906 7.125 5.125 7.3125 5.125 7.5ZM5.125 9.49219V13.5C5.125 13.7109 5.28906 13.875 5.5 13.875H14.5C14.6875 13.875 14.875 13.7109 14.875 13.5V9.49219L11.5469 12.2109C10.6328 12.9609 9.34375 12.9609 8.42969 12.2109L5.125 9.49219Z" fill="currentColor"/>
</svg>
