<svg  viewBox="0 0 20 20" fill="none" xmlns="http://www.w3.org/2000/svg">
<path d="M7.07812 5.0625C7.55078 5.0625 7.9375 5.44922 7.9375 5.92188V6.95312C7.9375 7.44727 7.55078 7.8125 7.07812 7.8125H6.04688C5.55273 7.8125 5.1875 7.44727 5.1875 6.95312V5.92188C5.1875 5.44922 5.55273 5.0625 6.04688 5.0625H7.07812ZM7.07812 5.92188H6.04688V6.95312H7.07812V5.92188ZM7.07812 8.5C7.55078 8.5 7.9375 8.88672 7.9375 9.35938V10.3906C7.9375 10.8848 7.55078 11.25 7.07812 11.25H6.04688C5.55273 11.25 5.1875 10.8848 5.1875 10.3906V9.35938C5.1875 8.88672 5.55273 8.5 6.04688 8.5H7.07812ZM7.07812 9.35938H6.04688V10.3906H7.07812V9.35938ZM5.1875 12.7969C5.1875 12.3242 5.55273 11.9375 6.04688 11.9375H7.07812C7.55078 11.9375 7.9375 12.3242 7.9375 12.7969V13.8281C7.9375 14.3223 7.55078 14.6875 7.07812 14.6875H6.04688C5.55273 14.6875 5.1875 14.3223 5.1875 13.8281V12.7969ZM6.04688 13.8281H7.07812V12.7969H6.04688V13.8281ZM10.5156 5.0625C10.9883 5.0625 11.375 5.44922 11.375 5.92188V6.95312C11.375 7.44727 10.9883 7.8125 10.5156 7.8125H9.48438C8.99023 7.8125 8.625 7.44727 8.625 6.95312V5.92188C8.625 5.44922 8.99023 5.0625 9.48438 5.0625H10.5156ZM10.5156 5.92188H9.48438V6.95312H10.5156V5.92188ZM8.625 9.35938C8.625 8.88672 8.99023 8.5 9.48438 8.5H10.5156C10.9883 8.5 11.375 8.88672 11.375 9.35938V10.3906C11.375 10.8848 10.9883 11.25 10.5156 11.25H9.48438C8.99023 11.25 8.625 10.8848 8.625 10.3906V9.35938ZM9.48438 10.3906H10.5156V9.35938H9.48438V10.3906ZM10.5156 11.9375C10.9883 11.9375 11.375 12.3242 11.375 12.7969V13.8281C11.375 14.3223 10.9883 14.6875 10.5156 14.6875H9.48438C8.99023 14.6875 8.625 14.3223 8.625 13.8281V12.7969C8.625 12.3242 8.99023 11.9375 9.48438 11.9375H10.5156ZM10.5156 12.7969H9.48438V13.8281H10.5156V12.7969ZM12.0625 5.92188C12.0625 5.44922 12.4277 5.0625 12.9219 5.0625H13.9531C14.4258 5.0625 14.8125 5.44922 14.8125 5.92188V6.95312C14.8125 7.44727 14.4258 7.8125 13.9531 7.8125H12.9219C12.4277 7.8125 12.0625 7.44727 12.0625 6.95312V5.92188ZM12.9219 6.95312H13.9531V5.92188H12.9219V6.95312ZM13.9531 8.5C14.4258 8.5 14.8125 8.88672 14.8125 9.35938V10.3906C14.8125 10.8848 14.4258 11.25 13.9531 11.25H12.9219C12.4277 11.25 12.0625 10.8848 12.0625 10.3906V9.35938C12.0625 8.88672 12.4277 8.5 12.9219 8.5H13.9531ZM13.9531 9.35938H12.9219V10.3906H13.9531V9.35938ZM12.0625 12.7969C12.0625 12.3242 12.4277 11.9375 12.9219 11.9375H13.9531C14.4258 11.9375 14.8125 12.3242 14.8125 12.7969V13.8281C14.8125 14.3223 14.4258 14.6875 13.9531 14.6875H12.9219C12.4277 14.6875 12.0625 14.3223 12.0625 13.8281V12.7969ZM12.9219 13.8281H13.9531V12.7969H12.9219V13.8281Z" fill="currentColor"/>
</svg>
