<svg  viewBox="0 0 20 20" fill="none" xmlns="http://www.w3.org/2000/svg">
<path d="M7.47656 6.5625H8.17969C8.78906 6.5625 9.30469 7.07812 9.30469 7.6875C9.30469 8.10938 9.07031 8.48438 8.67188 8.67188L8.22656 8.90625V9C8.22656 9.21094 8.0625 9.375 7.85156 9.375C7.66406 9.375 7.47656 9.21094 7.47656 9V8.67188C7.47656 8.53125 7.57031 8.39062 7.6875 8.34375L8.34375 8.01562C8.46094 7.94531 8.55469 7.82812 8.55469 7.6875C8.55469 7.47656 8.39062 7.3125 8.17969 7.3125H7.47656C7.3125 7.3125 7.17188 7.45312 7.17188 7.61719C7.17188 7.82812 7.00781 7.99219 6.79688 7.99219C6.58594 7.99219 6.42188 7.82812 6.42188 7.61719C6.42188 7.03125 6.89062 6.5625 7.47656 6.5625ZM7.38281 10.125C7.38281 9.86719 7.59375 9.65625 7.85156 9.65625C8.13281 9.65625 8.32031 9.86719 8.32031 10.125C8.32031 10.3828 8.13281 10.5938 7.85156 10.5938C7.59375 10.5938 7.38281 10.3828 7.38281 10.125ZM7.875 12.75C7.42969 12.75 7.00781 12.7031 6.58594 12.6094C5.88281 13.0547 4.85156 13.5 3.5625 13.5C3.32812 13.5 3.11719 13.3828 3.04688 13.1484C2.95312 12.9375 2.97656 12.7031 3.14062 12.5156C3.16406 12.5156 3.67969 11.9531 4.05469 11.2031C3.39844 10.5 3 9.60938 3 8.625C3 6.35156 5.17969 4.5 7.875 4.5C10.5469 4.5 12.75 6.35156 12.75 8.625C12.75 10.9219 10.5469 12.75 7.875 12.75ZM11.625 8.625C11.625 6.98438 9.9375 5.625 7.875 5.625C5.78906 5.625 4.125 6.98438 4.125 8.625C4.125 9.46875 4.52344 10.0781 4.875 10.4297L5.4375 11.0156L5.0625 11.7422C4.96875 11.8828 4.875 12.0469 4.78125 12.2109C5.20312 12.0938 5.60156 11.9062 6 11.6484L6.39844 11.4141L6.84375 11.5078C7.19531 11.6016 7.52344 11.625 7.85156 11.625C9.9375 11.625 11.625 10.2891 11.625 8.625ZM13.5 8.64844V8.625C13.5 8.25 13.4297 7.875 13.3359 7.52344C15.9375 7.61719 18 9.42188 18 11.625C18 12.6094 17.5781 13.5 16.9219 14.2031C17.2969 14.9531 17.8125 15.5156 17.8359 15.5156C18 15.7031 18.0234 15.9375 17.9297 16.1484C17.8594 16.3828 17.6484 16.5 17.4141 16.5C16.125 16.5 15.0938 16.0547 14.3906 15.6094C13.9688 15.7031 13.5469 15.75 13.125 15.75C11.2031 15.75 9.53906 14.8125 8.74219 13.4531C9.14062 13.4062 9.53906 13.3125 9.89062 13.1719C10.5469 14.0625 11.7422 14.625 13.125 14.625C13.4531 14.625 13.7812 14.6016 14.1328 14.5078L14.5781 14.4141L14.9766 14.6484C15.375 14.9062 15.7734 15.0938 16.1953 15.2109C16.1016 15.0469 16.0078 14.8828 15.9141 14.7422L15.5391 14.0156L16.1016 13.4297C16.4531 13.0781 16.875 12.4688 16.875 11.625C16.875 10.0781 15.375 8.8125 13.4766 8.64844H13.5Z" fill="currentColor"/>
</svg>
