<svg  viewBox="0 0 20 20" fill="none" xmlns="http://www.w3.org/2000/svg">
<path d="M17.9766 8.50781C17.9766 8.8125 17.8828 9.09375 17.6719 9.32812L16.5 10.7812C16.2422 11.0859 15.8672 11.2734 15.4922 11.2734C15.1875 11.2734 14.9062 11.1797 14.6719 10.9688L14.2266 10.6172V14.8125C14.2266 15.75 13.4531 16.5 12.5391 16.5H8.4375C7.5 16.5 6.75 15.75 6.75 14.8125V10.6172L6.28125 10.9688C6.04688 11.1562 5.76562 11.25 5.48438 11.25C5.08594 11.25 4.71094 11.0859 4.45312 10.7812L3.28125 9.32812C3.09375 9.09375 3 8.8125 3 8.50781C3 8.13281 3.16406 7.75781 3.49219 7.5L6.65625 4.99219C7.05469 4.6875 7.54688 4.5 8.0625 4.5H8.625C8.92969 4.5 9.1875 4.75781 9.1875 5.0625C9.1875 5.78906 9.77344 6.375 10.5 6.375C11.2031 6.375 11.8125 5.78906 11.8125 5.0625C11.8125 4.75781 12.0469 4.5 12.3516 4.5H12.9141C13.4297 4.5 13.9219 4.6875 14.2969 4.99219L17.4609 7.5C17.7891 7.75781 17.9766 8.13281 17.9766 8.50781ZM16.875 8.50781C16.875 8.46094 16.8281 8.41406 16.7812 8.36719L13.6406 5.88281C13.4297 5.71875 13.1719 5.625 12.9141 5.625H12.8672C12.6094 6.70312 11.6484 7.5 10.5 7.5C9.32812 7.5 8.36719 6.70312 8.10938 5.625H8.0625C7.80469 5.625 7.54688 5.71875 7.3125 5.88281L4.17188 8.36719C4.125 8.41406 4.10156 8.46094 4.10156 8.50781C4.10156 8.55469 4.125 8.60156 4.14844 8.625L5.32031 10.0547C5.34375 10.0781 5.41406 10.125 5.48438 10.125C5.50781 10.125 5.55469 10.125 5.60156 10.1016L7.26562 8.78906C7.33594 8.71875 7.40625 8.69531 7.47656 8.69531C7.6875 8.69531 7.875 8.85938 7.875 9.07031V14.8125C7.875 15.1406 8.10938 15.375 8.4375 15.375H12.5391C12.8672 15.375 13.1016 15.1406 13.1016 14.8125V9.04688C13.1016 8.83594 13.2891 8.67188 13.5 8.67188C13.5703 8.67188 13.6406 8.69531 13.7109 8.76562L15.375 10.0781C15.4219 10.1016 15.4688 10.125 15.4922 10.125C15.5859 10.125 15.6328 10.0547 15.6562 10.0547L16.8281 8.60156C16.8516 8.57812 16.875 8.53125 16.875 8.50781Z" fill="currentColor"/>
</svg>
