<svg  viewBox="0 0 20 20" fill="none" xmlns="http://www.w3.org/2000/svg">
<path d="M9.71875 6.46875L9.97656 6.75L10.2578 6.49219C11.0312 5.71875 12.1328 5.36719 13.1875 5.55469C14.8047 5.8125 16 7.21875 16 8.85938V8.97656C16 9.96094 15.5781 10.8984 14.875 11.5547L10.6328 15.5156C10.4688 15.6797 10.2344 15.75 10 15.75C9.74219 15.75 9.50781 15.6797 9.34375 15.5156L5.10156 11.5547C4.39844 10.8984 4 9.96094 4 8.97656V8.85938C4 7.21875 5.17188 5.8125 6.78906 5.55469C7.84375 5.36719 8.94531 5.71875 9.71875 6.46875C9.71875 6.49219 9.69531 6.46875 9.71875 6.46875ZM9.97656 8.34375L8.92188 7.26562C8.40625 6.77344 7.67969 6.53906 6.97656 6.65625C5.89844 6.84375 5.125 7.75781 5.125 8.85938V8.97656C5.125 9.65625 5.38281 10.2891 5.875 10.7344L10 14.5781L14.1016 10.7344C14.5938 10.2891 14.875 9.65625 14.875 8.97656V8.85938C14.875 7.75781 14.0781 6.84375 13 6.65625C12.2969 6.53906 11.5703 6.77344 11.0547 7.26562L9.97656 8.34375Z" fill="currentColor"/>
</svg>
