<svg  viewBox="0 0 20 20" fill="none" xmlns="http://www.w3.org/2000/svg">
<path d="M10.75 5.25C11.3594 5.25 11.875 5.76562 11.875 6.375V7.875C11.875 8.50781 11.3594 9 10.75 9H10.5625V9.9375H14.125C14.8281 9.9375 15.4375 10.5469 15.4375 11.25V12H15.625C16.2344 12 16.75 12.5156 16.75 13.125V14.625C16.75 15.2578 16.2344 15.75 15.625 15.75H14.125C13.4922 15.75 13 15.2578 13 14.625V13.125C13 12.5156 13.4922 12 14.125 12H14.3125V11.25C14.3125 11.1562 14.2188 11.0625 14.125 11.0625H10.5625V12H10.75C11.3594 12 11.875 12.5156 11.875 13.125V14.625C11.875 15.2578 11.3594 15.75 10.75 15.75H9.25C8.61719 15.75 8.125 15.2578 8.125 14.625V13.125C8.125 12.5156 8.61719 12 9.25 12H9.4375V11.0625H5.875C5.75781 11.0625 5.6875 11.1562 5.6875 11.25V12H5.875C6.48438 12 7 12.5156 7 13.125V14.625C7 15.2578 6.48438 15.75 5.875 15.75H4.375C3.74219 15.75 3.25 15.2578 3.25 14.625V13.125C3.25 12.5156 3.74219 12 4.375 12H4.5625V11.25C4.5625 10.5469 5.14844 9.9375 5.875 9.9375H9.4375V9H9.25C8.61719 9 8.125 8.50781 8.125 7.875V6.375C8.125 5.76562 8.61719 5.25 9.25 5.25H10.75ZM10.75 6.375H9.25V7.875H10.75V6.375ZM4.375 14.625H5.875V13.125H4.375V14.625ZM9.25 14.625H10.75V13.125H9.25V14.625ZM14.125 14.625H15.625V13.125H14.125V14.625Z" fill="currentColor"/>
</svg>
