<svg width="32" height="32" viewBox="0 0 32 32" fill="none" xmlns="http://www.w3.org/2000/svg">
<g clip-path="url(#clip0_24137_3733)">
<rect width="32" height="32" rx="2" fill="white"/>
<path d="M14 16.045C14.5156 15.4253 15.1644 15.1154 15.9467 15.1154C16.7644 15.1154 17.4222 15.4253 17.92 16.045C18.4356 16.6447 18.6933 17.4843 18.6933 18.5639C18.6933 19.6634 18.4356 20.523 17.92 21.1427C17.4222 21.7424 16.7644 22.0423 15.9467 22.0423C15.1644 22.0423 14.5156 21.7324 14 21.1127C13.4844 20.493 13.2267 19.6434 13.2267 18.5639C13.2267 17.5043 13.4844 16.6647 14 16.045Z" fill="#E35335"/>
<path fill-rule="evenodd" clip-rule="evenodd" d="M3.2 0C1.43269 0 0 1.43269 0 3.2V28.8C0 30.5673 1.43269 32 3.2 32H28.8C30.5673 32 32 30.5673 32 28.8V3.2C32 1.43269 30.5673 0 28.8 0H3.2ZM20.9067 11.0072C19.9467 10.3075 18.8711 9.9577 17.68 9.9577C16.6311 9.9577 15.7244 10.2176 14.96 10.7373C14.1956 11.2371 13.6267 11.9368 13.2533 12.8364V5.63296C13.2533 5.17293 12.9217 4.8 12.5126 4.8H8.74074C8.33164 4.8 8 5.17293 8 5.63296V26.1571C8 26.6172 8.33164 26.9901 8.74074 26.9901H12.5126C12.9217 26.9901 13.2533 26.6172 13.2533 26.1571V24.3213C13.6267 25.2209 14.1956 25.9306 14.96 26.4503C15.7244 26.9501 16.6311 27.2 17.68 27.2C18.8711 27.2 19.9467 26.8602 20.9067 26.1805C21.8667 25.4808 22.6222 24.4812 23.1733 23.1818C23.7244 21.8624 24 20.3231 24 18.5639C24 16.8046 23.7244 15.2753 23.1733 13.9759C22.6222 12.6765 21.8667 11.6869 20.9067 11.0072Z" fill="#E35335"/>
</g>
<defs>
<clipPath id="clip0_24137_3733">
<rect width="32" height="32" rx="2" fill="white"/>
</clipPath>
</defs>
</svg>
