<svg width="256" height="256" viewBox="0 0 256 256" fill="none" xmlns="http://www.w3.org/2000/svg">
<g clip-path="url(#clip0_24137_3733)">
<rect width="256" height="256" fill="white"/>
<path d="M112 128.36C116.124 123.402 121.316 120.923 127.573 120.923C134.116 120.923 139.378 123.402 143.36 128.36C147.484 133.158 149.547 139.875 149.547 148.511C149.547 157.307 147.484 164.184 143.36 169.142C139.378 173.939 134.116 176.338 127.573 176.338C121.316 176.338 116.124 173.86 112 168.902C107.876 163.944 105.813 157.147 105.813 148.511C105.813 140.035 107.876 133.318 112 128.36Z" fill="#E35335"/>
<path fill-rule="evenodd" clip-rule="evenodd" d="M25.6 0C11.4615 0 0 11.4615 0 25.6V230.4C0 244.539 11.4615 256 25.6 256H230.4C244.539 256 256 244.538 256 230.4V25.6C256 11.4615 244.538 0 230.4 0H25.6ZM167.253 88.0578C159.573 82.4603 150.969 79.6616 141.44 79.6616C133.049 79.6616 125.796 81.7407 119.68 85.8988C113.564 89.897 109.013 95.4945 106.027 102.691V45.0637C106.027 41.3834 103.374 38.4 100.101 38.4H69.9259C66.6531 38.4 64 41.3834 64 45.0637V209.257C64 212.937 66.6531 215.921 69.9259 215.921H100.101C103.374 215.921 106.027 212.937 106.027 209.257V194.57C109.013 201.767 113.564 207.445 119.68 211.603C125.796 215.601 133.049 217.6 141.44 217.6C150.969 217.6 159.573 214.881 167.253 209.444C174.933 203.846 180.978 195.85 185.387 185.454C189.796 174.899 192 162.585 192 148.511C192 134.437 189.796 122.203 185.387 111.807C180.978 101.412 174.933 93.4954 167.253 88.0578Z" fill="#E35335"/>
</g>
<defs>
<clipPath id="clip0_24137_3733">
<rect width="256" height="256" fill="white"/>
</clipPath>
</defs>
</svg>
