<svg  viewBox="0 0 20 20" fill="none" xmlns="http://www.w3.org/2000/svg">
<path d="M12.7656 5.25C13.3516 5.25 13.8906 5.60156 14.125 6.16406L15.1094 8.34375C15.2031 8.53125 15.25 8.74219 15.25 8.95312V14.25C15.25 15.0938 14.5703 15.75 13.75 15.75H6.25C5.40625 15.75 4.75 15.0938 4.75 14.25V8.95312C4.75 8.74219 4.77344 8.53125 4.86719 8.34375L5.85156 6.16406C6.08594 5.60156 6.625 5.25 7.21094 5.25H12.7656ZM12.7656 6.375H10.5625V8.25H13.8438L13.1172 6.60938C13.0469 6.46875 12.9062 6.375 12.7656 6.375ZM14.125 9.375H5.875V14.25C5.875 14.4609 6.03906 14.625 6.25 14.625H13.75C13.9375 14.625 14.125 14.4609 14.125 14.25V9.375ZM6.13281 8.25H9.4375V6.375H7.21094C7.07031 6.375 6.92969 6.46875 6.85938 6.60938L6.13281 8.25Z" fill="currentColor"/>
</svg>
