<svg  viewBox="0 0 20 20" fill="none" xmlns="http://www.w3.org/2000/svg">
<path d="M12.625 4.5C13.4453 4.5 14.125 5.17969 14.125 6V15C14.125 15.8438 13.4453 16.5 12.625 16.5H7.375C6.53125 16.5 5.875 15.8438 5.875 15V6C5.875 5.17969 6.53125 4.5 7.375 4.5H12.625ZM13 15V6C13 5.8125 12.8125 5.625 12.625 5.625H7.375C7.16406 5.625 7 5.8125 7 6V15C7 15.2109 7.16406 15.375 7.375 15.375H12.625C12.8125 15.375 13 15.2109 13 15ZM10.75 13.875C10.9375 13.875 11.125 14.0625 11.125 14.25C11.125 14.4609 10.9375 14.625 10.75 14.625H9.25C9.03906 14.625 8.875 14.4609 8.875 14.25C8.875 14.0625 9.03906 13.875 9.25 13.875H10.75Z" fill="currentColor"/>
</svg>
