<svg  viewBox="0 0 20 20" fill="none" xmlns="http://www.w3.org/2000/svg">
<path d="M4.85938 12.0938L11.9844 4.96875C12.5703 4.38281 13.5312 4.38281 14.1172 4.96875L15.0312 5.88281C15.1016 5.95312 15.1719 6.04688 15.2188 6.11719C15.6172 6.70312 15.5469 7.5 15.0312 8.01562L7.90625 15.1406C7.88281 15.1641 7.83594 15.1875 7.8125 15.2344C7.57812 15.4219 7.32031 15.5625 7.03906 15.6562L4.20312 16.4766C4.01562 16.5469 3.80469 16.5 3.66406 16.3359C3.5 16.1953 3.45312 15.9844 3.5 15.7969L4.34375 12.9609C4.4375 12.6328 4.625 12.3281 4.85938 12.0938ZM5.42188 13.2891L4.88281 15.1172L6.71094 14.5781C6.85156 14.5312 6.99219 14.4609 7.10938 14.3438L12.4766 8.97656L11 7.52344L5.65625 12.8906C5.63281 12.8906 5.63281 12.9141 5.60938 12.9375C5.51562 13.0312 5.46875 13.1484 5.42188 13.2891Z" fill="currentColor"/>
</svg>
