<svg  viewBox="0 0 20 20" fill="none" xmlns="http://www.w3.org/2000/svg">
<path d="M7.375 7.3125C7.375 7.64062 7.11719 7.875 6.8125 7.875C6.48438 7.875 6.25 7.64062 6.25 7.3125C6.25 7.00781 6.48438 6.75 6.8125 6.75C7.11719 6.75 7.375 7.00781 7.375 7.3125ZM12.625 7.3125C12.625 7.00781 12.8594 6.75 13.1875 6.75C13.4922 6.75 13.75 7.00781 13.75 7.3125C13.75 7.64062 13.4922 7.875 13.1875 7.875C12.8594 7.875 12.625 7.64062 12.625 7.3125ZM7.375 13.6875C7.375 14.0156 7.11719 14.25 6.8125 14.25C6.48438 14.25 6.25 14.0156 6.25 13.6875C6.25 13.3828 6.48438 13.125 6.8125 13.125C7.11719 13.125 7.375 13.3828 7.375 13.6875ZM12.625 13.6875C12.625 13.3828 12.8594 13.125 13.1875 13.125C13.4922 13.125 13.75 13.3828 13.75 13.6875C13.75 14.0156 13.4922 14.25 13.1875 14.25C12.8594 14.25 12.625 14.0156 12.625 13.6875ZM13.75 5.25C14.5703 5.25 15.25 5.92969 15.25 6.75V14.25C15.25 15.0938 14.5703 15.75 13.75 15.75H6.25C5.40625 15.75 4.75 15.0938 4.75 14.25V6.75C4.75 5.92969 5.40625 5.25 6.25 5.25H13.75ZM13.75 6.375H6.25C6.03906 6.375 5.875 6.5625 5.875 6.75V14.25C5.875 14.4609 6.03906 14.625 6.25 14.625H13.75C13.9375 14.625 14.125 14.4609 14.125 14.25V6.75C14.125 6.5625 13.9375 6.375 13.75 6.375Z" fill="currentColor"/>
</svg>
