<svg  viewBox="0 0 20 20" fill="none" xmlns="http://www.w3.org/2000/svg">
<path d="M11.125 5.625C11.125 6.25781 10.6094 6.75 10 6.75C9.36719 6.75 8.875 6.25781 8.875 5.625C8.875 5.01562 9.36719 4.5 10 4.5C10.6094 4.5 11.125 5.01562 11.125 5.625ZM9.625 12.75V15.9375C9.625 16.2656 9.36719 16.5 9.0625 16.5C8.73438 16.5 8.5 16.2656 8.5 15.9375V9.75L7.46875 11.5312C7.32812 11.8125 6.97656 11.9062 6.71875 11.7422C6.4375 11.6016 6.34375 11.25 6.50781 10.9922L7.86719 8.55469C8.24219 7.92188 8.92188 7.5 9.67188 7.5H10.3047C11.0547 7.5 11.7344 7.92188 12.1094 8.55469L13.4688 10.9922C13.6328 11.25 13.5391 11.6016 13.2578 11.7422C13 11.9062 12.6484 11.8125 12.5078 11.5312L11.5 9.75V15.9375C11.5 16.2656 11.2422 16.5 10.9375 16.5C10.6094 16.5 10.375 16.2656 10.375 15.9375V12.75H9.625ZM9.625 11.625H10.375V8.64844C10.3516 8.625 10.3281 8.625 10.3047 8.625H9.67188C9.64844 8.625 9.625 8.625 9.625 8.64844V11.625Z" fill="currentColor"/>
</svg>
