<svg  viewBox="0 0 20 20" fill="none" xmlns="http://www.w3.org/2000/svg">
<path d="M7.56641 3.95312C8.14062 3.24219 9.01562 2.75 10 2.75C10.957 2.75 11.832 3.24219 12.4062 3.95312C13.3086 3.84375 14.2383 4.11719 14.9492 4.80078C15.6328 5.51172 15.9062 6.44141 15.7969 7.34375C16.5078 7.91797 17 8.79297 17 9.75C17 10.7344 16.5078 11.6094 15.7969 12.1836C15.9062 13.0586 15.6328 14.0156 14.9492 14.6992C14.2383 15.4102 13.3086 15.6836 12.4062 15.5742C11.832 16.2852 10.957 16.75 10 16.75C9.01562 16.75 8.14062 16.2852 7.56641 15.5742C6.66406 15.6836 5.73438 15.4102 5.02344 14.6992C4.33984 14.0156 4.06641 13.0586 4.17578 12.1836C3.46484 11.6094 3 10.7344 3 9.75C3 8.79297 3.46484 7.91797 4.17578 7.34375C4.06641 6.44141 4.33984 5.51172 5.02344 4.80078C5.73438 4.11719 6.66406 3.84375 7.56641 3.95312ZM10 4.0625C9.31641 4.0625 8.74219 4.44531 8.46875 4.99219L8.19531 5.48438L7.70312 5.32031C7.10156 5.12891 6.41797 5.26562 5.95312 5.73047C5.48828 6.19531 5.35156 6.87891 5.54297 7.45312L5.70703 7.97266L5.21484 8.24609C4.66797 8.51953 4.3125 9.09375 4.3125 9.75C4.3125 10.4336 4.66797 11.0078 5.21484 11.2812L5.70703 11.5273L5.54297 12.0469C5.35156 12.6484 5.48828 13.3047 5.95312 13.7969C6.41797 14.2617 7.10156 14.3984 7.70312 14.207L8.19531 14.043L8.46875 14.5352C8.74219 15.082 9.31641 15.4375 10 15.4375C10.6562 15.4375 11.2305 15.082 11.5039 14.5352L11.7773 14.043L12.2695 14.207C12.8711 14.3984 13.5547 14.2617 14.0195 13.7969C14.4844 13.3047 14.6211 12.6484 14.4297 12.0469L14.2656 11.5273L14.7578 11.2812C15.3047 11.0078 15.6875 10.4336 15.6875 9.75C15.6875 9.09375 15.3047 8.51953 14.7578 8.24609L14.2656 7.97266L14.4297 7.45312C14.6211 6.87891 14.4844 6.19531 14.0195 5.73047C13.5547 5.26562 12.8711 5.12891 12.2695 5.32031L11.7773 5.48438L11.5039 4.99219C11.2305 4.44531 10.6562 4.0625 10 4.0625Z" fill="currentColor"/>
</svg>
