<svg  viewBox="0 0 20 20" fill="none" xmlns="http://www.w3.org/2000/svg">
<path d="M11.125 5.625C11.125 6.25781 10.6094 6.75 10 6.75C9.36719 6.75 8.875 6.25781 8.875 5.625C8.875 5.01562 9.36719 4.5 10 4.5C10.6094 4.5 11.125 5.01562 11.125 5.625ZM9.8125 12.75V15.75C9.8125 16.1719 9.46094 16.5 9.0625 16.5C8.64062 16.5 8.3125 16.1719 8.3125 15.75V10.5234L7.63281 11.6484C7.42188 12 6.95312 12.1172 6.60156 11.9062C6.25 11.6953 6.13281 11.2266 6.34375 10.875L7.70312 8.60156C8.125 7.92188 8.85156 7.5 9.64844 7.5H10.3281C11.125 7.5 11.8516 7.92188 12.2734 8.60156L13.6328 10.875C13.8438 11.2266 13.7266 11.6953 13.375 11.9062C13.0234 12.1172 12.5547 12 12.3438 11.6484L11.6875 10.5234V15.75C11.6875 16.1719 11.3359 16.5 10.9375 16.5C10.5156 16.5 10.1875 16.1719 10.1875 15.75V12.75H9.8125Z" fill="currentColor"/>
</svg>
