<svg  viewBox="0 0 20 20" fill="none" xmlns="http://www.w3.org/2000/svg">
<path d="M9.69531 12.4688C9.4375 12.7266 9.03906 12.7266 8.78125 12.4688L7.28125 10.9688C7.02344 10.7109 7.02344 10.3125 7.28125 10.0547C7.53906 9.79688 7.9375 9.79688 8.19531 10.0547L9.25 11.0859L11.7812 8.55469C12.0391 8.29688 12.4375 8.29688 12.6953 8.55469C12.9531 8.8125 12.9531 9.21094 12.6953 9.46875L9.69531 12.4688ZM16 10.5C16 13.8281 13.3047 16.5 10 16.5C6.67188 16.5 4 13.8281 4 10.5C4 7.19531 6.67188 4.5 10 4.5C13.3047 4.5 16 7.19531 16 10.5ZM10 5.625C7.30469 5.625 5.125 7.82812 5.125 10.5C5.125 13.1953 7.30469 15.375 10 15.375C12.6719 15.375 14.875 13.1953 14.875 10.5C14.875 7.82812 12.6719 5.625 10 5.625Z" fill="currentColor"/>
</svg>
