<svg  viewBox="0 0 20 20" fill="none" xmlns="http://www.w3.org/2000/svg">
<path d="M15.8125 6.75C16.3281 6.75 16.75 7.17188 16.75 7.6875C16.75 8.22656 16.3281 8.625 15.8125 8.625C15.7891 8.625 15.7891 8.625 15.7891 8.625L14.5938 15.1406C14.5469 15.4922 14.2188 15.75 13.8672 15.75H6.10938C5.75781 15.75 5.42969 15.4922 5.35938 15.1406L4.16406 8.625C3.64844 8.625 3.22656 8.22656 3.22656 7.6875C3.22656 7.17188 3.64844 6.75 4.16406 6.75C4.67969 6.75 5.10156 7.17188 5.10156 7.6875C5.10156 7.89844 5.03125 8.08594 4.91406 8.25L7.02344 9.9375C7.16406 10.0547 7.32812 10.1016 7.49219 10.1016C7.75 10.1016 8.03125 9.9375 8.14844 9.67969L9.48438 6.98438C9.22656 6.82031 9.03906 6.53906 9.03906 6.1875C9.03906 5.67188 9.46094 5.25 10 5.25C10.5156 5.25 10.9141 5.67188 10.9141 6.1875C10.9141 6.53906 10.75 6.82031 10.4688 6.98438L11.8281 9.67969C11.9453 9.9375 12.2266 10.1016 12.4844 10.1016C12.6484 10.1016 12.8125 10.0547 12.9531 9.9375L15.0625 8.25C14.9453 8.08594 14.875 7.89844 14.875 7.6875C14.875 7.17188 15.2734 6.75 15.8125 6.75ZM13.5391 14.625L14.3359 10.2656L13.6562 10.8047C13.3281 11.0859 12.9297 11.2266 12.4844 11.2266C11.7812 11.2266 11.1484 10.8281 10.8203 10.1953L10 8.53125L9.15625 10.1953C8.85156 10.8281 8.19531 11.2266 7.49219 11.2266C7.07031 11.2266 6.64844 11.0859 6.32031 10.8047L5.64062 10.2656L6.4375 14.625H13.5391Z" fill="currentColor"/>
</svg>
