<svg  viewBox="0 0 20 20" fill="none" xmlns="http://www.w3.org/2000/svg">
<path d="M5.35938 12.0938L12.4844 4.96875C13.0703 4.38281 14.0312 4.38281 14.6172 4.96875L15.5312 5.88281C15.6016 5.95312 15.6719 6.04688 15.7188 6.11719C16.1172 6.70312 16.0469 7.5 15.5312 8.01562L8.40625 15.1406C8.38281 15.1641 8.33594 15.1875 8.3125 15.2344C8.07812 15.4219 7.82031 15.5625 7.53906 15.6562L4.70312 16.4766C4.51562 16.5469 4.30469 16.5 4.16406 16.3359C4 16.1953 3.95312 15.9844 4 15.7969L4.84375 12.9609C4.9375 12.6328 5.125 12.3281 5.35938 12.0938ZM5.92188 13.2891L5.38281 15.1172L7.21094 14.5781C7.35156 14.5312 7.49219 14.4609 7.60938 14.3438L12.9766 8.97656L11.5 7.52344L6.15625 12.8906C6.13281 12.8906 6.13281 12.9141 6.10938 12.9375C6.01562 13.0312 5.96875 13.1484 5.92188 13.2891Z" fill="currentColor"/>
</svg>
