<svg viewBox="0 0 20 20" fill="none" xmlns="http://www.w3.org/2000/svg">
<path fill-rule="evenodd" clip-rule="evenodd" d="M3 4a1.5 1.5 0 0 1 1.5-1.5h11A1.5 1.5 0 0 1 17 4v12a1.5 1.5 0 0 1-1.5 1.5h-11A1.5 1.5 0 0 1 3 16V4Zm2 0a.5.5 0 0 0-.5.5v1a.5.5 0 0 0 .5.5h.5a.5.5 0 0 0 .5-.5v-1a.5.5 0 0 0-.5-.5H5Zm9 0a.5.5 0 0 0-.5.5v1a.5.5 0 0 0 .5.5h.5a.5.5 0 0 0 .5-.5v-1a.5.5 0 0 0-.5-.5H14ZM4.5 8.5a.5.5 0 0 1 .5-.5h.5a.5.5 0 0 1 .5.5v1a.5.5 0 0 1-.5.5H5a.5.5 0 0 1-.5-.5v-1Zm9.5-.5a.5.5 0 0 0-.5.5v1a.5.5 0 0 0 .5.5h.5a.5.5 0 0 0 .5-.5v-1a.5.5 0 0 0-.5-.5H14ZM4.5 12.5a.5.5 0 0 1 .5-.5h.5a.5.5 0 0 1 .5.5v1a.5.5 0 0 1-.5.5H5a.5.5 0 0 1-.5-.5v-1Zm9.5-.5a.5.5 0 0 0-.5.5v1a.5.5 0 0 0 .5.5h.5a.5.5 0 0 0 .5-.5v-1a.5.5 0 0 0-.5-.5H14ZM7 4.5a.5.5 0 0 1 .5-.5h5a.5.5 0 0 1 .5.5v4a.5.5 0 0 1-.5.5h-5a.5.5 0 0 1-.5-.5v-4Zm.5 6.5a.5.5 0 0 0-.5.5v4a.5.5 0 0 0 .5.5h5a.5.5 0 0 0 .5-.5v-4a.5.5 0 0 0-.5-.5h-5Z" fill="currentColor"/>
</svg>
