<svg viewBox="0 0 20 20" fill="none" xmlns="http://www.w3.org/2000/svg">
<path fill-rule="evenodd" clip-rule="evenodd" d="M4 2.75A.75.75 0 0 1 4.75 2h10.5a.75.75 0 0 1 .75.75v14.5a.75.75 0 0 1-.75.75h-3v-3.5a1 1 0 0 0-1-1h-2a1 1 0 0 0-1 1V18h-3a.75.75 0 0 1-.75-.75V2.75ZM6.5 5.75A.75.75 0 0 1 7.25 5h1a.75.75 0 0 1 0 1.5h-1a.75.75 0 0 1-.75-.75ZM7.25 8.5a.75.75 0 0 0 0 1.5h1a.75.75 0 0 0 0-1.5h-1Zm4-3.5a.75.75 0 0 1 .75-.75h1a.75.75 0 0 1 0 1.5h-1a.75.75 0 0 1-.75-.75Zm.75 2.75a.75.75 0 0 0 0 1.5h1a.75.75 0 0 0 0-1.5h-1Z" fill="currentColor"/>
</svg>
