<svg  viewBox="0 0 20 20" fill="none" xmlns="http://www.w3.org/2000/svg">
<path d="M13.4375 5.375C14.1895 5.375 14.8125 5.99805 14.8125 6.75V15C14.8125 15.7734 14.1895 16.375 13.4375 16.375H6.5625C5.78906 16.375 5.1875 15.7734 5.1875 15V6.75C5.1875 5.99805 5.78906 5.375 6.5625 5.375H13.4375ZM13.4375 15.3438C13.6094 15.3438 13.7812 15.1934 13.7812 15V11.3906H6.21875V15C6.21875 15.1934 6.36914 15.3438 6.5625 15.3438H13.4375ZM13.7812 10.3594V6.75C13.7812 6.57812 13.6094 6.40625 13.4375 6.40625H6.5625C6.36914 6.40625 6.21875 6.57812 6.21875 6.75V10.3594H13.7812ZM7.9375 8.98438C7.74414 8.98438 7.59375 8.83398 7.59375 8.64062V8.125C7.59375 7.75977 7.89453 7.4375 8.28125 7.4375H11.7188C12.084 7.4375 12.4062 7.75977 12.4062 8.125V8.64062C12.4062 8.83398 12.2344 8.98438 12.0625 8.98438H11.7188C11.5254 8.98438 11.375 8.83398 11.375 8.64062V8.46875H8.625V8.64062C8.625 8.83398 8.45312 8.98438 8.28125 8.98438H7.9375ZM7.9375 14.1406C7.74414 14.1406 7.59375 13.9902 7.59375 13.7969V13.2812C7.59375 12.916 7.89453 12.5938 8.28125 12.5938H11.7188C12.084 12.5938 12.4062 12.916 12.4062 13.2812V13.7969C12.4062 13.9902 12.2344 14.1406 12.0625 14.1406H11.7188C11.5254 14.1406 11.375 13.9902 11.375 13.7969V13.625H8.625V13.7969C8.625 13.9902 8.45312 14.1406 8.28125 14.1406H7.9375Z" fill="currentColor"/>
</svg>
