<svg  viewBox="0 0 20 20" fill="none" xmlns="http://www.w3.org/2000/svg">
<path d="M16.5098 8.31836C16.7246 8.4043 16.875 8.59766 16.875 8.8125C16.875 9.04883 16.7246 9.24219 16.5098 9.32812L10.4512 11.498C10.3008 11.541 10.1504 11.5625 10 11.5625C9.82812 11.5625 9.67773 11.541 9.52734 11.498L5.44531 10.0371C5.1875 10.3164 4.99414 10.6602 4.9082 11.0469C5.05859 11.1543 5.1875 11.3477 5.1875 11.5625C5.1875 11.7773 5.08008 11.9707 4.92969 12.0996L5.44531 15.3008C5.48828 15.5156 5.31641 15.6875 5.12305 15.6875H3.85547C3.66211 15.6875 3.49023 15.5156 3.5332 15.3008L4.04883 12.0996C3.89844 11.9707 3.8125 11.7773 3.8125 11.5625C3.8125 11.2832 3.98438 11.0469 4.2207 10.9395C4.30664 10.5098 4.5 10.123 4.75781 9.7793L3.46875 9.32812C3.25391 9.24219 3.125 9.04883 3.125 8.8125C3.125 8.59766 3.25391 8.4043 3.46875 8.31836L9.52734 6.14844C9.67773 6.10547 9.82812 6.0625 10 6.0625C10.1504 6.0625 10.3008 6.10547 10.4297 6.14844L16.5098 8.31836ZM10.1074 10.5312L14.8555 8.8125L10.0859 7.11523C10.043 7.11523 9.95703 7.09375 9.87109 7.11523L5.12305 8.8125L5.81055 9.07031L9.89258 7.80273C10.0645 7.73828 10.2578 7.8457 10.3223 8.03906C10.3652 8.21094 10.2793 8.4043 10.0859 8.46875L6.88477 9.45703L9.89258 10.5312C9.91406 10.5312 10 10.5527 10.1074 10.5312ZM12.8359 11.3691L13.8242 11.0254L14.1035 13.7324C14.125 15.043 12.041 15.6875 10 15.6875C7.9375 15.6875 5.875 15.043 5.875 13.7324L6.1543 11.0254L7.14258 11.3691L6.90625 13.7754C6.90625 14.0117 7.95898 14.6562 10 14.6562C12.0195 14.6562 13.0938 14.0117 13.0938 13.7754L12.8359 11.3691Z" fill="currentColor"/>
</svg>
