<svg  viewBox="0 0 20 20" fill="none" xmlns="http://www.w3.org/2000/svg">
<path d="M12.5 6.5C13.1836 6.5 13.75 7.06641 13.75 7.75V14C13.75 14.7031 13.1836 15.25 12.5 15.25H7.5C6.79688 15.25 6.25 14.7031 6.25 14V7.75C6.25 7.06641 6.79688 6.5 7.5 6.5H8.45703C8.61328 5.79688 9.23828 5.25 10 5.25C10.7422 5.25 11.3672 5.79688 11.5234 6.5H12.5ZM10 6.1875C9.72656 6.1875 9.53125 6.40234 9.53125 6.65625C9.53125 6.92969 9.72656 7.125 10 7.125C10.2539 7.125 10.4688 6.92969 10.4688 6.65625C10.4688 6.40234 10.2539 6.1875 10 6.1875ZM12.8125 14V7.75C12.8125 7.59375 12.6562 7.4375 12.5 7.4375H12.1289C12.168 7.55469 12.1875 7.65234 12.1875 7.75V8.0625C12.1875 8.23828 12.0312 8.375 11.875 8.375H8.125C7.94922 8.375 7.8125 8.23828 7.8125 8.0625V7.75C7.8125 7.65234 7.8125 7.55469 7.85156 7.4375H7.5C7.32422 7.4375 7.1875 7.59375 7.1875 7.75V14C7.1875 14.1758 7.32422 14.3125 7.5 14.3125H12.5C12.6562 14.3125 12.8125 14.1758 12.8125 14Z" fill="currentColor"/>
</svg>
