<svg  viewBox="0 0 20 20" fill="none" xmlns="http://www.w3.org/2000/svg">
<path d="M10.5625 13.1562C10.5625 13.3145 10.4219 13.4375 10.2812 13.4375H9.71875C9.56055 13.4375 9.4375 13.3145 9.4375 13.1562C9.4375 13.0156 9.56055 12.875 9.71875 12.875H10.2812C10.4219 12.875 10.5625 13.0156 10.5625 13.1562ZM8.59375 12.875H7.75C7.5918 12.875 7.46875 13.0156 7.46875 13.1562C7.46875 13.3145 7.5918 13.4375 7.75 13.4375H8.59375C8.73438 13.4375 8.875 13.3145 8.875 13.1562C8.875 13.0156 8.73438 12.875 8.59375 12.875ZM7.39844 10.6953C7.39844 10.0449 7.92578 9.5 8.59375 9.5C9.24414 9.5 9.78906 10.0449 9.78906 10.6953C9.78906 11.3633 9.24414 11.8906 8.59375 11.8906C7.92578 11.8906 7.39844 11.3633 7.39844 10.6953ZM8.24219 10.6953C8.24219 10.9062 8.38281 11.0469 8.59375 11.0469C8.78711 11.0469 8.94531 10.9062 8.94531 10.6953C8.94531 10.502 8.78711 10.3438 8.59375 10.3438C8.38281 10.3438 8.24219 10.502 8.24219 10.6953ZM12.6016 10.6953C12.6016 11.3633 12.0566 11.8906 11.3887 11.8906C10.7383 11.8906 10.1934 11.3457 10.1934 10.6953C10.1934 10.0449 10.7383 9.51758 11.3887 9.51758C12.0566 9.5 12.6016 10.0449 12.6016 10.6953ZM11.7402 10.6953C11.7402 10.502 11.582 10.3613 11.3887 10.3613C11.1953 10.3613 11.0547 10.502 11.0547 10.6953C11.0547 10.9062 11.1953 11.0469 11.3887 11.0469C11.582 11.0469 11.7402 10.8887 11.7402 10.6953ZM12.25 12.875H11.4062C11.248 12.875 11.125 13.0156 11.125 13.1562C11.125 13.3145 11.248 13.4375 11.4062 13.4375H12.25C12.3906 13.4375 12.5312 13.3145 12.5312 13.1562C12.5312 13.0156 12.3906 12.875 12.25 12.875ZM13.9375 9.21875V13.7188C13.9375 14.5098 13.3047 15.125 12.5312 15.125H7.46875C6.67773 15.125 6.0625 14.5098 6.0625 13.7188V9.21875C6.0625 8.44531 6.67773 7.8125 7.46875 7.8125H9.57812V6.54688C9.57812 6.31836 9.75391 6.125 10 6.125C10.2285 6.125 10.4219 6.31836 10.4219 6.54688V7.8125H12.5312C13.3047 7.8125 13.9375 8.44531 13.9375 9.21875ZM13.0938 9.21875C13.0938 8.91992 12.8301 8.65625 12.5312 8.65625H7.46875C7.15234 8.65625 6.90625 8.91992 6.90625 9.21875V13.7188C6.90625 14.0352 7.15234 14.2812 7.46875 14.2812H12.5312C12.8301 14.2812 13.0938 14.0352 13.0938 13.7188V9.21875ZM14.7812 9.5H14.5V12.875H14.7812C15.0801 12.875 15.3438 12.6289 15.3438 12.3125V10.0625C15.3438 9.76367 15.0801 9.5 14.7812 9.5ZM4.65625 10.0625V12.3125C4.65625 12.6289 4.90234 12.875 5.20117 12.875H5.5V9.5H5.21875C4.90234 9.5 4.65625 9.76367 4.65625 10.0625Z" fill="currentColor"/>
</svg>
