<svg  viewBox="0 0 20 20" fill="none" xmlns="http://www.w3.org/2000/svg">
<path d="M10 4.5C13.3047 4.5 16 7.19531 16 10.5C16 13.8281 13.3047 16.5 10 16.5C6.67188 16.5 4 13.8281 4 10.5C4 7.19531 6.67188 4.5 10 4.5ZM10 15.375C10.1641 15.375 10.6094 15.2109 11.1016 14.25C11.3125 13.8281 11.4766 13.3359 11.6172 12.75H8.35938C8.5 13.3359 8.66406 13.8281 8.875 14.25C9.36719 15.2109 9.8125 15.375 10 15.375ZM8.17188 11.625H11.8047C11.8516 11.2734 11.875 10.8984 11.875 10.5C11.875 10.125 11.8516 9.75 11.8047 9.375H8.17188C8.125 9.75 8.125 10.125 8.125 10.5C8.125 10.8984 8.125 11.2734 8.17188 11.625ZM11.6172 8.25C11.4766 7.6875 11.3125 7.19531 11.1016 6.77344C10.6094 5.8125 10.1641 5.625 10 5.625C9.8125 5.625 9.36719 5.8125 8.875 6.77344C8.66406 7.19531 8.5 7.6875 8.35938 8.25H11.6172ZM12.9297 9.375C12.9766 9.75 13 10.125 13 10.5C13 10.8984 12.9766 11.2734 12.9297 11.625H14.7344C14.8281 11.2734 14.875 10.8984 14.875 10.5C14.875 10.125 14.8281 9.75 14.7344 9.375H12.9297ZM12.0156 6.07031C12.3438 6.67969 12.6016 7.42969 12.7656 8.25H14.3125C13.8203 7.28906 13 6.51562 12.0156 6.07031ZM7.96094 6.07031C6.97656 6.51562 6.15625 7.28906 5.66406 8.25H7.21094C7.375 7.42969 7.63281 6.67969 7.96094 6.07031ZM5.125 10.5C5.125 10.8984 5.14844 11.2734 5.24219 11.625H7.04688C7 11.2734 7 10.8984 7 10.5C7 10.125 7 9.75 7.04688 9.375H5.24219C5.14844 9.75 5.125 10.125 5.125 10.5ZM14.3125 12.75H12.7656C12.6016 13.5938 12.3438 14.3438 12.0156 14.9531C13 14.5078 13.8203 13.7344 14.3125 12.75ZM7.21094 12.75H5.66406C6.15625 13.7344 6.97656 14.5078 7.96094 14.9531C7.63281 14.3438 7.375 13.5938 7.21094 12.75Z" fill="currentColor"/>
</svg>
