<svg  viewBox="0 0 20 20" fill="none" xmlns="http://www.w3.org/2000/svg">
<path d="M12.5 5.25C13.1836 5.25 13.75 5.81641 13.75 6.5V14C13.75 14.7031 13.1836 15.25 12.5 15.25H7.5C6.79688 15.25 6.25 14.7031 6.25 14V6.5C6.25 5.81641 6.79688 5.25 7.5 5.25H12.5ZM10.3125 12.125C10.4688 12.125 10.625 11.9883 10.625 11.8125C10.625 11.6562 10.4688 11.5 10.3125 11.5H7.8125C7.63672 11.5 7.5 11.6562 7.5 11.8125C7.5 11.9883 7.63672 12.125 7.8125 12.125H10.3125ZM12.1875 10.25C12.3438 10.25 12.5 10.1133 12.5 9.9375C12.5 9.78125 12.3438 9.625 12.1875 9.625H7.8125C7.63672 9.625 7.5 9.78125 7.5 9.9375C7.5 10.1133 7.63672 10.25 7.8125 10.25H12.1875ZM12.1875 8.375C12.3438 8.375 12.5 8.23828 12.5 8.0625C12.5 7.90625 12.3438 7.75 12.1875 7.75H7.8125C7.63672 7.75 7.5 7.90625 7.5 8.0625C7.5 8.23828 7.63672 8.375 7.8125 8.375H12.1875Z" fill="currentColor"/>
</svg>
