<svg  viewBox="0 0 20 20" fill="none" xmlns="http://www.w3.org/2000/svg">
<path d="M10.875 5.25C11.4844 5.25 12 5.76562 12 6.375V14.625C12 15.2578 11.4844 15.75 10.875 15.75H10.125C9.49219 15.75 9 15.2578 9 14.625V6.375C9 5.76562 9.49219 5.25 10.125 5.25H10.875ZM10.875 6.375H10.125V14.625H10.875V6.375ZM7.125 9.75C7.73438 9.75 8.25 10.2656 8.25 10.875V14.625C8.25 15.2578 7.73438 15.75 7.125 15.75H6.375C5.74219 15.75 5.25 15.2578 5.25 14.625V10.875C5.25 10.2656 5.74219 9.75 6.375 9.75H7.125ZM7.125 10.875H6.375V14.625H7.125V10.875ZM12.75 7.875C12.75 7.26562 13.2422 6.75 13.875 6.75H14.625C15.2344 6.75 15.75 7.26562 15.75 7.875V14.625C15.75 15.2578 15.2344 15.75 14.625 15.75H13.875C13.2422 15.75 12.75 15.2578 12.75 14.625V7.875ZM13.875 14.625H14.625V7.875H13.875V14.625Z" fill="currentColor"/>
</svg>
