<svg  viewBox="0 0 20 20" fill="none" xmlns="http://www.w3.org/2000/svg">
<path d="M14.9805 5.25C15.332 5.25 15.625 5.54297 15.625 5.89453C15.625 6.22656 15.332 6.51953 14.9805 6.51953L15 11.5195C15 11.8516 14.707 12.1445 14.375 12.1445H10.625V12.8086L12.0703 14.293C12.1875 14.4102 12.1875 14.6055 12.0703 14.7227L11.6211 15.1719C11.5039 15.2891 11.3086 15.2891 11.1914 15.1719L10 13.9609L8.76953 15.1719C8.65234 15.2891 8.45703 15.2891 8.33984 15.1719L7.89062 14.7227C7.77344 14.6055 7.77344 14.4102 7.89062 14.293L9.375 12.8086V12.125H5.625C5.27344 12.125 5 11.8516 5 11.5L4.98047 6.5C4.64844 6.5 4.375 6.20703 4.375 5.875C4.375 5.54297 4.64844 5.25 4.98047 5.25H14.9805ZM13.75 10.875V6.51953H6.25V10.875H13.75Z" fill="currentColor"/>
</svg>
