<svg  viewBox="0 0 20 20" fill="none" xmlns="http://www.w3.org/2000/svg">
<path d="M6.875 5.25C7.20703 5.25 7.5 5.54297 7.5 5.875V6.5H14.375C14.707 6.5 15 6.79297 15 7.125C15 7.47656 14.707 7.75 14.375 7.75H7.5V14.625C7.5 14.9766 7.20703 15.25 6.875 15.25C6.52344 15.25 6.25 14.9766 6.25 14.625V7.75H5.625C5.27344 7.75 5 7.47656 5 7.125C5 6.79297 5.27344 6.5 5.625 6.5H6.25V5.875C6.25 5.54297 6.52344 5.25 6.875 5.25ZM13.75 8.375C14.082 8.375 14.375 8.66797 14.375 9V12.125C14.375 12.4766 14.082 12.75 13.75 12.75H8.75C8.39844 12.75 8.125 12.4766 8.125 12.125V9C8.125 8.66797 8.39844 8.375 8.75 8.375H13.75Z" fill="currentColor"/>
</svg>
