<svg  viewBox="0 0 20 20" fill="none" xmlns="http://www.w3.org/2000/svg">
<path d="M13.75 9C14.4336 9 15 9.56641 15 10.25V12.125C15 12.4766 14.707 12.75 14.375 12.75H13.75V14.625C13.75 14.9766 13.457 15.25 13.125 15.25H6.875C6.52344 15.25 6.25 14.9766 6.25 14.625V12.75H5.625C5.27344 12.75 5 12.4766 5 12.125V10.25C5 9.56641 5.54688 9 6.25 9H13.75ZM12.5 14V12.125H7.5V14H12.5ZM13.4375 11.0312C13.6914 11.0312 13.9062 10.8359 13.9062 10.5625C13.9062 10.3086 13.6914 10.0938 13.4375 10.0938C13.1641 10.0938 12.9688 10.3086 12.9688 10.5625C12.9688 10.8359 13.1641 11.0312 13.4375 11.0312ZM7.5 6.5V8.375H6.25V5.875C6.25 5.54297 6.52344 5.25 6.875 5.25H12.2266C12.4023 5.25 12.5586 5.32812 12.6758 5.44531L13.5547 6.32422C13.6719 6.44141 13.75 6.59766 13.75 6.77344V8.375H12.5V7.02734L11.9727 6.5H7.5Z" fill="currentColor"/>
</svg>
