<svg  viewBox="0 0 20 20" fill="none" xmlns="http://www.w3.org/2000/svg">
<path d="M11.125 5.25C10.9141 5.25 10.75 5.08594 10.75 4.875C10.75 4.6875 10.9141 4.5 11.125 4.5C12.1562 4.5 13 5.34375 13 6.375C13 6.58594 12.8125 6.75 12.625 6.75C12.4141 6.75 12.25 6.58594 12.25 6.375C12.25 5.76562 11.7344 5.25 11.125 5.25ZM5.875 14.25C6.0625 14.25 6.25 14.4375 6.25 14.625C6.25 14.8359 6.0625 15 5.875 15C4.82031 15 4 14.1797 4 13.125C4 12.9375 4.16406 12.75 4.375 12.75C4.5625 12.75 4.75 12.9375 4.75 13.125C4.75 13.7578 5.24219 14.25 5.875 14.25ZM13.8438 7.125C14.8281 7.125 15.625 7.92188 15.625 8.90625V12.0938C15.625 13.2891 15.1562 14.4141 14.3125 15.2578C13.4922 16.0547 12.4141 16.5 11.2656 16.5C9.0625 16.5 7.44531 14.5781 5.21875 12.3516C4.89062 12.0234 4.75 11.625 4.75 11.2031C4.75 11.1797 4.70312 10.4766 5.3125 9.98438C5.19531 9.75 5.125 9.49219 5.125 9.23438C5.125 9.21094 5.10156 8.32031 5.89844 7.85156C5.89844 7.78125 5.89844 7.71094 5.89844 7.66406C5.89844 6.77344 6.625 6.04688 7.51562 6.04688C7.5625 6.04688 7.63281 6.04688 7.70312 6.07031C8.19531 5.22656 9.08594 5.25 9.10938 5.25C9.53125 5.25 9.95312 5.4375 10.2578 5.74219L12.3906 7.875C12.7188 7.42969 13.2344 7.125 13.8438 7.125ZM14.5 12.0938V8.90625C14.5 8.55469 14.1953 8.25 13.8438 8.25C13.2812 8.25 13.1875 8.8125 13.1875 8.95312V10.2656L9.46094 6.53906C9.36719 6.44531 9.22656 6.375 9.10938 6.375C8.82812 6.375 8.61719 6.60938 8.61719 6.86719C8.61719 7.00781 8.66406 7.125 8.75781 7.21875L11.3125 9.77344C11.3828 9.82031 11.4062 9.91406 11.4062 10.0078C11.4062 10.1016 11.3828 10.1953 11.3125 10.2656C11.2422 10.3125 11.1484 10.3594 11.0781 10.3594C10.9844 10.3594 10.8906 10.3125 10.8203 10.2656L7.86719 7.3125C7.77344 7.21875 7.65625 7.17188 7.53906 7.17188C7.25781 7.17188 7.04688 7.40625 7.04688 7.66406C7.04688 7.78125 7.09375 7.92188 7.1875 8.01562L10.1406 10.9453C10.2109 11.0156 10.2344 11.1094 10.2344 11.2031C10.2344 11.2734 10.2109 11.3672 10.1406 11.4375C10.0703 11.5078 9.97656 11.5312 9.88281 11.5312C9.78906 11.5312 9.71875 11.5078 9.64844 11.4375L7.09375 8.88281C7 8.78906 6.85938 8.74219 6.74219 8.74219C6.46094 8.74219 6.25 8.97656 6.25 9.23438C6.25 9.35156 6.29688 9.49219 6.39062 9.58594L8.94531 12.1172C9.01562 12.1875 9.0625 12.2812 9.0625 12.375C9.0625 12.4688 9.01562 12.5625 8.94531 12.6094C8.875 12.6797 8.80469 12.7266 8.71094 12.7266C8.61719 12.7266 8.52344 12.6797 8.45312 12.6094L6.69531 10.8516C6.60156 10.7578 6.48438 10.7109 6.34375 10.7109C6.08594 10.7109 5.875 10.9219 5.875 11.2031C5.875 11.3203 5.92188 11.4609 6.01562 11.5547C8.26562 13.8047 9.60156 15.375 11.2656 15.375C12.1094 15.375 12.9062 15.0469 13.5156 14.4609C14.1484 13.8281 14.5 12.9844 14.5 12.0938Z" fill="currentColor"/>
</svg>
