<svg  viewBox="0 0 20 20" fill="none" xmlns="http://www.w3.org/2000/svg">
<path d="M10.3125 5.58203C10.3125 5.40625 10.4297 5.25 10.625 5.25C13.0273 5.25 15 7.22266 15 9.625C15 9.80078 14.8438 9.9375 14.668 9.9375H10.3125V5.58203ZM5 10.5625C5 8.19922 6.75781 6.24609 9.02344 5.93359C9.21875 5.89453 9.375 6.05078 9.375 6.22656V10.875L12.4219 13.9414C12.5586 14.0781 12.5391 14.293 12.4023 14.3906C11.6211 14.9375 10.6836 15.25 9.6875 15.25C7.08984 15.25 5 13.1602 5 10.5625ZM15.2734 10.875C15.4492 10.875 15.6055 11.0312 15.5664 11.207C15.4297 12.3008 14.9023 13.2773 14.1211 14C14.0039 14.0977 13.8281 14.0977 13.7109 13.9805L10.625 10.875H15.2734Z" fill="currentColor"/>
</svg>
