<svg  viewBox="0 0 20 20" fill="none" xmlns="http://www.w3.org/2000/svg">
<path d="M12.8125 5.25C13.3203 5.25 13.75 5.67969 13.75 6.1875V14.3125C13.75 14.8398 13.3203 15.25 12.8125 15.25H10.9375V13.6875C10.9375 13.1797 10.5078 12.75 10 12.75C9.47266 12.75 9.0625 13.1797 9.0625 13.6875V15.25H7.1875C6.66016 15.25 6.25 14.8398 6.25 14.3125V6.1875C6.25 5.67969 6.66016 5.25 7.1875 5.25H12.8125ZM7.5 10.5625C7.5 10.7383 7.63672 10.875 7.8125 10.875H8.4375C8.59375 10.875 8.75 10.7383 8.75 10.5625V9.9375C8.75 9.78125 8.59375 9.625 8.4375 9.625H7.8125C7.63672 9.625 7.5 9.78125 7.5 9.9375V10.5625ZM9.6875 9.625C9.51172 9.625 9.375 9.78125 9.375 9.9375V10.5625C9.375 10.7383 9.51172 10.875 9.6875 10.875H10.3125C10.4688 10.875 10.625 10.7383 10.625 10.5625V9.9375C10.625 9.78125 10.4688 9.625 10.3125 9.625H9.6875ZM11.25 10.5625C11.25 10.7383 11.3867 10.875 11.5625 10.875H12.1875C12.3438 10.875 12.5 10.7383 12.5 10.5625V9.9375C12.5 9.78125 12.3438 9.625 12.1875 9.625H11.5625C11.3867 9.625 11.25 9.78125 11.25 9.9375V10.5625ZM7.8125 7.125C7.63672 7.125 7.5 7.28125 7.5 7.4375V8.0625C7.5 8.23828 7.63672 8.375 7.8125 8.375H8.4375C8.59375 8.375 8.75 8.23828 8.75 8.0625V7.4375C8.75 7.28125 8.59375 7.125 8.4375 7.125H7.8125ZM9.375 8.0625C9.375 8.23828 9.51172 8.375 9.6875 8.375H10.3125C10.4688 8.375 10.625 8.23828 10.625 8.0625V7.4375C10.625 7.28125 10.4688 7.125 10.3125 7.125H9.6875C9.51172 7.125 9.375 7.28125 9.375 7.4375V8.0625ZM11.5625 7.125C11.3867 7.125 11.25 7.28125 11.25 7.4375V8.0625C11.25 8.23828 11.3867 8.375 11.5625 8.375H12.1875C12.3438 8.375 12.5 8.23828 12.5 8.0625V7.4375C12.5 7.28125 12.3438 7.125 12.1875 7.125H11.5625Z" fill="currentColor"/>
</svg>
