<svg  viewBox="0 0 20 20" fill="none" xmlns="http://www.w3.org/2000/svg">
<path d="M10.5 16.5C7.59375 16.5 5.25 15.6797 5.25 14.625V6.375C5.25 5.34375 7.59375 4.5 10.5 4.5C13.3828 4.5 15.75 5.34375 15.75 6.375V14.625C15.75 15.6797 13.3828 16.5 10.5 16.5ZM14.625 6.53906L14.6016 6.51562C14.4844 6.42188 14.2266 6.25781 13.8281 6.11719C13.0312 5.83594 11.8359 5.625 10.5 5.625C9.14062 5.625 7.94531 5.83594 7.14844 6.11719C6.75 6.25781 6.49219 6.42188 6.375 6.51562V6.53906V8.60156C6.67969 8.76562 7.10156 8.92969 7.64062 9.07031C8.4375 9.25781 9.42188 9.375 10.5 9.375C11.5547 9.375 12.5391 9.25781 13.3359 9.07031C13.875 8.92969 14.2969 8.76562 14.625 8.60156V6.53906ZM14.625 9.84375C14.2969 9.96094 13.9688 10.0781 13.5938 10.1719C12.7031 10.3828 11.625 10.5 10.5 10.5C9.35156 10.5 8.27344 10.3828 7.38281 10.1719C7.00781 10.0781 6.67969 9.96094 6.375 9.84375V11.6016C6.67969 11.7656 7.10156 11.9297 7.64062 12.0703C8.4375 12.2578 9.42188 12.375 10.5 12.375C11.5547 12.375 12.5391 12.2578 13.3359 12.0703C13.875 11.9297 14.2969 11.7656 14.625 11.6016V9.84375ZM6.375 14.5078C6.49219 14.6016 6.75 14.7656 7.14844 14.9062C7.94531 15.1875 9.14062 15.375 10.4766 15.375C11.8359 15.375 13.0312 15.1875 13.8281 14.9062C14.2266 14.7656 14.4844 14.6016 14.6016 14.5078L14.625 14.4844V12.8438C14.2969 12.9609 13.9688 13.0781 13.5938 13.1719C12.7031 13.3828 11.625 13.5 10.4766 13.5C9.35156 13.5 8.27344 13.3828 7.38281 13.1719C7.00781 13.0781 6.67969 12.9609 6.35156 12.8438V14.4844L6.375 14.5078ZM14.6719 14.4375L14.6484 14.4609C14.6719 14.4375 14.6719 14.4375 14.6719 14.4375ZM6.32812 14.4609C6.32812 14.4375 6.30469 14.4375 6.30469 14.4375L6.32812 14.4609ZM6.32812 6.5625C6.30469 6.58594 6.30469 6.58594 6.30469 6.58594L6.32812 6.5625ZM14.6719 6.58594C14.6719 6.58594 14.6719 6.58594 14.6484 6.5625L14.6719 6.58594Z" fill="currentColor"/>
</svg>
