<svg  viewBox="0 0 20 20" fill="none" xmlns="http://www.w3.org/2000/svg">
<path d="M15.8125 15.5391C16.0469 15.7734 16.0469 16.125 15.8125 16.3359C15.7188 16.4531 15.5781 16.5 15.4375 16.5C15.2734 16.5 15.1328 16.4531 15.0156 16.3359L11.875 13.1953C11.0312 13.875 9.97656 14.25 8.85156 14.25C6.17969 14.25 4 12.0703 4 9.375C4 6.70312 6.15625 4.5 8.85156 4.5C11.5234 4.5 13.7266 6.70312 13.7266 9.375C13.7266 10.5234 13.3516 11.5781 12.6719 12.3984L15.8125 15.5391ZM5.125 9.375C5.125 11.4609 6.78906 13.125 8.875 13.125C10.9375 13.125 12.625 11.4609 12.625 9.375C12.625 7.3125 10.9375 5.625 8.875 5.625C6.78906 5.625 5.125 7.3125 5.125 9.375Z" fill="currentColor"/>
</svg>
