<svg  viewBox="0 0 20 20" fill="none" xmlns="http://www.w3.org/2000/svg">
<path d="M16.4922 5.36719C16.6562 5.46094 16.75 5.64844 16.75 5.8125V13.6875C16.75 13.9219 16.5859 14.1328 16.375 14.2266L12.4375 15.7266C12.3203 15.7734 12.1797 15.7734 12.0625 15.7266L7.75 14.2969L4 15.7266C3.83594 15.7969 3.625 15.7734 3.48438 15.6562C3.32031 15.5625 3.25 15.375 3.25 15.1875V7.3125C3.25 7.07812 3.39062 6.89062 3.60156 6.79688L7.53906 5.29688C7.65625 5.25 7.79688 5.25 7.91406 5.29688L12.2266 6.72656L15.9766 5.29688C16.1406 5.22656 16.3516 5.25 16.4922 5.36719ZM4.375 14.3906L7.1875 13.3125V6.63281L4.375 7.71094V14.3906ZM11.6875 7.73438L8.3125 6.60938V13.2891L11.6875 14.4141V7.73438ZM12.8125 14.3906L15.625 13.3125V6.63281L12.8125 7.71094V14.3906Z" fill="currentColor"/>
</svg>
