<svg  viewBox="0 0 20 20" fill="none" xmlns="http://www.w3.org/2000/svg">
<path d="M10 4.5C13.3516 4.5 15.8828 7.3125 16 10.5V13.875C16 15.0234 15.0625 15.9375 13.9375 15.9375H11.3359C11.1484 16.2891 10.7734 16.5 10.375 16.5H9.60156C8.99219 16.5 8.5 16.0078 8.5 15.375C8.5 14.7656 8.99219 14.25 9.625 14.25H10.375C10.7734 14.25 11.1484 14.4844 11.3359 14.8125H13.9375C14.4531 14.8125 14.875 14.4141 14.875 13.875V13.4062C14.6875 13.4766 14.4766 13.5 14.2656 13.5H13.8438C13.375 13.5 13 13.125 13 12.6328V9.51562C13 9.02344 13.375 8.625 13.8438 8.625H14.2656C14.3594 8.625 14.4297 8.64844 14.5 8.64844C13.7734 6.89062 12.0156 5.64844 10 5.64844C7.96094 5.64844 6.20312 6.89062 5.47656 8.67188C5.54688 8.64844 5.61719 8.625 5.71094 8.625H6.13281C6.60156 8.625 7 9.02344 7 9.51562V12.6328C7 13.125 6.60156 13.5 6.13281 13.5H5.71094C4.75 13.5 4 12.7266 4 11.7656V10.5C4.09375 7.3125 6.625 4.5 10 4.5ZM5.71094 9.75C5.38281 9.75 5.14844 10.0078 5.125 10.3359C5.125 10.4062 5.125 10.4531 5.125 10.5V11.7656C5.125 12.0938 5.38281 12.375 5.71094 12.375H5.875V9.75H5.71094ZM14.2656 12.375C14.5938 12.375 14.875 12.0938 14.875 11.7656V10.5C14.875 10.4531 14.8516 10.4062 14.8516 10.3359C14.8281 10.0312 14.5938 9.75 14.2656 9.75H14.125V12.375H14.2656Z" fill="currentColor"/>
</svg>
